<svg width="87" height="55" viewBox="0 0 87 55" fill="none" xmlns="http://www.w3.org/2000/svg">
<path fill-rule="evenodd" clip-rule="evenodd" d="M2.34863 31.4198V55.0001H86.232V25.4368L2.34863 31.4198Z" fill="#63EA90"/>
<path fill-rule="evenodd" clip-rule="evenodd" d="M0 0V30.3384L83.8834 24.3559V0H0Z" fill="#63EA90"/>
<path fill-rule="evenodd" clip-rule="evenodd" d="M20.0775 23.3877C21.459 23.3877 23.0955 23.933 24.149 24.8419L25.3122 19.4254C23.7489 18.2261 20.9143 17.3899 18.1872 17.3899C12.298 17.3899 8.44482 21.6432 8.44482 27.6776C8.44482 28.3877 8.50214 29.0657 8.60476 29.7141L16.5174 29.1519C16.3504 28.6557 16.2609 28.1006 16.2609 27.4958C16.2609 25.0236 17.6779 23.3877 20.0775 23.3877Z" fill="#1D1D1B"/>
<path fill-rule="evenodd" clip-rule="evenodd" d="M20.1837 38.7409C22.8011 38.7409 25.7454 37.9412 27.2722 36.7409L26.5091 31.1066C25.6368 31.9794 23.782 32.7425 22.1832 32.7425C20.3704 32.7425 19.1002 31.7867 18.586 30.2545L10.6733 30.8167C11.4446 35.6814 15.0189 38.7409 20.1837 38.7409Z" fill="#1D1D1B"/>
<path fill-rule="evenodd" clip-rule="evenodd" d="M42.6473 31.1789C41.8105 32.1969 40.7199 32.7422 39.5207 32.7422C37.5583 32.7422 37.5218 31.0337 37.5218 30.1975V28.9082L29.9961 29.4431V31.1789C29.9961 35.9415 31.6691 38.7406 35.8498 38.7406C38.6844 38.7406 41.1206 37.4677 42.9748 35.3596L43.3739 38.1587H50.4634C50.244 35.4693 50.1064 31.8639 50.072 28.0162L42.5584 28.5506C42.5736 29.5173 42.5998 30.383 42.6473 31.1789Z" fill="#1D1D1B"/>
<path fill-rule="evenodd" clip-rule="evenodd" d="M48.1083 17.9712H40.4385C40.475 19.9346 40.475 21.6066 40.475 23.0967C40.475 24.7927 40.4761 26.2065 40.4952 27.4483L48.0089 26.9139C48.0029 26.2889 47.9996 25.659 47.9996 25.0236C47.9996 22.6611 48.0362 20.2616 48.1083 17.9712Z" fill="#1D1D1B"/>
<path fill-rule="evenodd" clip-rule="evenodd" d="M35.4575 23.7152C35.4575 21.2796 35.4575 20.0798 35.5295 17.9712H27.7866C27.9318 20.3347 27.9318 21.243 27.9318 23.7152V28.3413L35.4575 27.8063V23.7152Z" fill="#1D1D1B"/>
<path fill-rule="evenodd" clip-rule="evenodd" d="M60.1786 24.2599H65.7048L65.9592 18.8068H60.1786C60.1786 16.7713 60.1786 13.7905 60.2517 12.3363H54.1087C53.7812 14.6988 53.4177 16.9531 53.1267 18.8068H50.291V24.2599H52.6906V26.5809L60.1786 26.0486V24.2599Z" fill="#1D1D1B"/>
<path fill-rule="evenodd" clip-rule="evenodd" d="M64.7877 32.7426C62.2789 32.7426 62.2423 31.2158 62.2423 29.8709V27.152L54.7549 27.6842V29.4347C54.7549 33.5788 54.7904 38.741 62.6796 38.741C64.8963 38.741 67.0055 38.3408 68.6408 37.4686L67.9864 31.9063C67.2227 32.3791 66.0235 32.7426 64.7877 32.7426Z" fill="#1D1D1B"/>
<path fill-rule="evenodd" clip-rule="evenodd" d="M77.1967 17.7159C77.1967 14.7355 77.4139 13.2082 77.4139 11.6089H69.2349C69.2349 13.2082 69.4892 15.2437 69.4892 18.4064C69.4892 20.3671 70.0034 23.1176 70.2731 25.331L75.7862 24.9397C76.2917 22.5297 77.1967 19.6329 77.1967 17.7159Z" fill="white"/>
<path fill-rule="evenodd" clip-rule="evenodd" d="M75.2206 30.7789C72.6753 30.7789 70.9668 32.4148 70.9668 34.7413C70.9668 37.1048 72.6753 38.7407 75.2206 38.7407C77.7294 38.7407 79.4379 37.1048 79.4379 34.7413C79.4379 32.3788 77.7294 30.7789 75.2206 30.7789Z" fill="white"/>
<path fill-rule="evenodd" clip-rule="evenodd" d="M77.8464 26.0348C77.6521 26.9611 77.514 27.8219 77.514 28.5179H72.497C72.497 27.9289 72.431 27.21 72.3354 26.4273L77.8464 26.0348Z" fill="white"/>
</svg>
