<svg width="153" height="35" viewBox="0 0 153 35" fill="none" xmlns="http://www.w3.org/2000/svg">
<g clip-path="url(#clip0_1_5834)">
<path d="M2.51318 22.1791C2.51318 29.9465 7.4768 35 15.0877 35C18.4913 35 22.3204 33.9706 24.3058 32.4265L23.3131 25.1738C22.1786 26.2968 19.7677 27.2794 17.6877 27.2794C14.5677 27.2794 12.6768 25.127 12.6768 21.9452C12.6768 21.6878 12.6925 21.4461 12.7162 21.2043L2.52106 21.9218C2.52106 22.0076 2.51318 22.0856 2.51318 22.1713V22.1791Z" fill="#2C303A"/>
<path d="M43.877 21.9452C43.877 25.127 42.6479 27.2794 40.0952 27.2794C37.8734 27.2794 36.3606 25.5949 36.3606 21.9452C36.3606 21.0406 36.4631 20.2217 36.6522 19.5198L26.5043 20.2373C26.4019 20.9548 26.3389 21.6956 26.3389 22.4599C26.3389 29.9933 31.7279 35 39.8588 35C47.9897 35 53.8988 29.5722 53.8988 21.4773C53.8988 20.3699 53.7727 19.3171 53.5442 18.3266L43.4121 19.0441C43.7115 19.8162 43.877 20.7832 43.877 21.9452Z" fill="white"/>
<path d="M73.611 25.2674C72.5237 26.5775 71.1055 27.2794 69.5456 27.2794C66.9928 27.2794 66.9456 25.0802 66.9456 24.004V17.383L57.1602 18.0771V25.2752C57.1602 31.4049 59.3347 35.0078 64.771 35.0078C68.4583 35.0078 71.6256 33.3701 74.0364 30.6562L74.5564 34.2591H83.7746C83.4437 30.2351 83.2546 24.6201 83.2546 18.7712C83.2546 17.9289 83.2546 17.0789 83.2704 16.2366L73.4771 16.9307C73.4771 20.4791 73.4849 23.0682 73.6189 25.283L73.611 25.2674Z" fill="#2C303A"/>
<path d="M88.4546 25.1738C88.4546 28.2152 88.4073 31.3035 88.3128 34.2513H98.2873C98.24 31.7246 98.24 29.5722 98.24 27.6537C98.24 23.7701 98.24 21.0094 98.0982 18.6698C99.1854 17.3596 100.604 16.6578 102.164 16.6578C104.716 16.6578 104.764 18.857 104.764 19.9332V26.8583C104.764 29.9933 104.764 31.5374 104.669 34.2513H114.738C114.549 31.2099 114.549 30.0401 114.549 26.8583V18.1083C114.549 17.0867 114.431 15.5738 113.934 14.0608L88.2812 15.8701C88.3916 18.7478 88.4467 21.914 88.4467 25.1738H88.4546Z" fill="white"/>
<path d="M133.222 27.2794C129.96 27.2794 129.913 25.3142 129.913 23.5829V17.7807H137.098L137.35 12.4075L117.055 13.8425V17.7807H120.175V23.0214C120.175 28.3556 120.222 35 130.48 35C133.364 35 136.106 34.4853 138.233 33.3623L137.382 26.2032C136.389 26.8115 134.829 27.2794 133.222 27.2794Z" fill="#2C303A"/>
<path d="M146.789 24.7527C143.48 24.7527 141.258 26.8583 141.258 29.8529C141.258 32.8476 143.48 35 146.789 35C150.098 35 152.273 32.8944 152.273 29.8529C152.273 26.8115 150.051 24.7527 146.789 24.7527Z" fill="white"/>
<path d="M149.767 21.8516C149.767 19.2001 151.296 14.7705 151.847 11.3859L142.109 12.0722C142.393 15.3398 143.243 19.4262 143.243 21.8516H149.767Z" fill="white"/>
<path d="M15.1193 15.1604C16.9157 15.1604 19.043 15.8623 20.4139 17.0321L21.9266 10.0602C19.8939 8.51604 16.2066 7.43984 12.6612 7.43984C5.0818 7.43984 0.110303 12.7975 0 20.4323L10.1951 19.7148C10.463 16.9541 12.2515 15.1682 15.1193 15.1682V15.1604Z" fill="#2C303A"/>
<path d="M37.9992 7.43984C30.3017 7.43984 24.9362 11.8928 23.9829 18.74L34.1307 18.0225C34.6192 16.2444 35.7223 15.1604 37.4792 15.1604C39.0471 15.1604 40.2604 15.9325 40.8907 17.539L51.0228 16.8215C49.7307 11.0818 44.8459 7.43204 37.9992 7.43204V7.43984Z" fill="white"/>
<path d="M64.4247 15.5816C64.4247 12.4465 64.4247 10.9024 64.5192 8.1885H54.4502C54.6393 11.2299 54.6393 12.3997 54.6393 15.5816V16.572L64.4247 15.8779V15.5738V15.5816Z" fill="#2C303A"/>
<path d="M70.8931 8.1885C70.9403 10.7152 70.9403 12.8676 70.9403 14.7861V15.4178L80.7336 14.7237C80.7494 12.5167 80.7967 10.3097 80.8676 8.18071H70.8931V8.1885Z" fill="#2C303A"/>
<path d="M104.267 7.43984C100.675 7.43984 97.5548 9.07754 95.1439 11.7914C95.0021 10.6684 94.813 9.49866 94.6239 8.1885H85.4058C85.5555 9.97438 85.6658 12.08 85.7603 14.3728L111.414 12.5635C110.571 9.98997 108.624 7.43984 104.275 7.43984H104.267Z" fill="white"/>
<path d="M134.9 9.26471H127.384C127.384 6.64439 127.384 2.80749 127.478 0.935829H119.489C119.064 3.97727 118.591 6.87834 118.213 9.26471H114.525V12.3451L134.821 10.9102L134.9 9.26471Z" fill="#2C303A"/>
<path d="M149.507 7.86096C149.507 4.02406 149.791 2.05882 149.791 0H139.155C139.155 2.05882 139.486 4.67914 139.486 8.75C139.486 9.3115 139.517 9.92758 139.58 10.5749L149.318 9.88859C149.437 9.15552 149.507 8.46925 149.507 7.86096Z" fill="white"/>
</g>
<defs>
<clipPath id="clip0_1_5834">
<rect width="152.273" height="35" fill="white"/>
</clipPath>
</defs>
</svg>
