<svg width="2511" height="857" viewBox="0 0 2511 857" fill="none" xmlns="http://www.w3.org/2000/svg">
<g clip-path="url(#clip0_289_43)">
<path d="M1218.84 24.0096C1189.27 100.5 1182.04 121.11 1183.1 125.785C1183.95 128.547 1189.91 136.833 1196.5 144.27L1208.63 157.656L1233.09 156.168C1246.7 155.319 1259.89 153.831 1262.87 153.194C1267.98 151.706 1267.98 151.706 1257.77 138.108L1247.34 124.297L1235 123.66C1228.41 123.235 1222.88 122.598 1222.88 122.173C1222.88 121.535 1230.11 103.687 1238.83 82.015C1247.55 60.3427 1254.79 40.3701 1254.79 37.608C1254.79 32.7211 1232.66 7.32839e-05 1229.47 7.32839e-05C1228.83 7.32839e-05 1223.94 10.8362 1218.84 24.0096Z" fill="white"/>
<path d="M1650.25 2.97439C1621.74 13.1731 1595.36 47.8064 1587.49 85.4143C1583.24 105.387 1585.15 116.223 1595.58 131.734C1610.04 153.406 1619.83 159.355 1634.93 155.318C1659.61 148.519 1683.22 120.048 1694.92 82.0147C1699.6 66.5041 1700.66 46.3191 1697.26 37.1827C1693.86 28.4713 1675.78 6.37397 1669.18 2.97439C1662.16 -0.637668 1660.25 -0.637668 1650.25 2.97439ZM1666.42 49.2937C1666.42 61.8297 1665.35 65.4417 1656.2 83.502C1645.57 104.324 1628.34 125.359 1621.53 125.359C1618.34 125.359 1618.13 123.66 1619.19 111.974C1620.68 96.8879 1627.49 77.9777 1631.53 76.9153C1633.23 76.4904 1637.27 70.3286 1640.68 63.317C1647.48 49.0812 1660.25 33.3582 1664.08 34.633C1665.56 35.058 1666.42 41.2197 1666.42 49.2937Z" fill="white"/>
<path d="M1322.22 3.61184C1313.71 4.24926 1308.4 5.31163 1309.03 6.58648C1309.89 7.64885 1301.8 31.6584 1291.17 60.1299C1280.74 88.3889 1271.38 114.098 1270.74 117.285C1268.62 125.997 1270.74 132.159 1280.53 144.695L1289.46 155.743L1323.5 154.468C1342.01 153.831 1357.96 152.769 1358.6 152.131C1359.02 151.494 1354.98 144.482 1349.03 136.621L1338.6 122.172L1322.01 121.535C1313.08 121.11 1305.84 120.26 1306.27 119.41C1306.69 118.56 1308.61 113.461 1310.95 107.724C1314.99 97.7378 1314.99 97.7378 1324.78 97.7378C1336.05 97.7378 1361.15 94.3382 1362.64 92.6384C1364.34 90.9386 1350.73 70.5411 1344.56 65.8667C1341.79 63.5295 1337.11 61.6172 1334.35 61.6172C1328.39 61.6172 1328.39 61.8297 1332.65 51.206L1336.05 42.9195L1354.34 41.4322C1364.56 40.5823 1376.04 39.3075 1379.87 38.4576L1386.68 37.1827L1376.26 21.0347L1366.04 4.88669L1354.56 3.61184C1348.18 2.76195 1341.58 2.337 1339.88 2.54947C1338.18 2.76195 1330.09 3.18689 1322.22 3.61184Z" fill="white"/>
<path d="M1476.24 23.7972C1470.49 35.9082 1459.43 59.0679 1451.56 75.4284C1443.69 91.7889 1435.39 109.849 1433.27 115.586L1429.01 125.785L1434.33 134.709C1437.1 139.383 1442.84 146.607 1446.88 150.432L1454.11 157.443L1457.94 147.245C1462.62 134.921 1481.98 93.4887 1483.04 93.4887C1483.47 93.4887 1483.47 101.138 1482.83 110.274C1481.98 125.572 1482.41 128.122 1487.3 136.408C1490.28 141.508 1494.96 147.67 1497.94 150.432L1503.25 155.319L1514.1 135.559C1527.29 111.337 1535.37 98.1631 1535.59 100.925C1535.59 101.988 1534.1 108.149 1532.61 114.311L1529.63 125.36L1537.71 137.683C1547.07 151.494 1553.67 158.293 1555.37 155.744C1557.07 152.981 1586.64 39.3078 1586.64 35.4833C1586.64 32.0837 1561.97 4.24961 1558.99 4.24961C1558.14 4.24961 1547.5 18.9103 1535.59 36.5457L1513.68 69.0542L1515.17 51.6313C1516.23 39.3078 1516.02 32.7211 1514.1 29.3215C1510.7 23.1598 1490.92 2.12487 1488.36 2.12487C1487.3 2.12487 1481.77 11.8987 1476.24 23.7972Z" fill="white"/>
<path d="M1788.95 28.2591C1764.27 96.4633 1745.77 132.796 1739.81 123.447C1737.68 119.835 1739.38 113.886 1755.76 68.6292L1768.1 34.2084L1762.15 26.1344C1753.42 14.2359 1743.64 4.24958 1740.66 4.24958C1737.04 4.24958 1709.81 79.8903 1703.65 107.087C1700.67 121.11 1703.22 128.334 1717.26 143.632L1728.75 156.168H1744.49C1758.32 156.168 1761.51 155.531 1768.95 150.219C1773.63 147.032 1780.65 139.808 1784.69 134.284C1792.99 122.81 1808.09 88.6017 1818.52 57.793C1825.54 37.183 1825.75 35.9082 1822.56 30.5963C1817.67 22.7348 1801.07 2.12484 1799.58 2.12484C1798.95 2.12484 1794.05 13.8109 1788.95 28.2591Z" fill="white"/>
<path d="M1841.92 7.86142C1841.92 11.261 1840.43 37.1828 1838.73 65.8668C1834.47 137.046 1833.62 129.609 1846.81 144.27C1852.77 151.281 1858.51 157.018 1859.36 157.018C1861.06 157.231 1918.29 79.2527 1932.11 58.0053C1937.43 49.7188 1941.9 41.2198 1941.9 39.3076C1941.9 35.6955 1933.81 23.372 1922.97 10.6236C1915.31 1.4872 1917.43 -1.06249 1892.12 45.6818C1881.7 65.0169 1872.97 80.5275 1872.55 80.1026C1872.34 79.8901 1873.4 71.1786 1875.1 60.5549C1876.59 50.1437 1877.23 40.5824 1876.17 39.3076C1867.02 26.7716 1850.85 7.86142 1846.81 5.31173C1842.13 2.12462 1841.92 2.3371 1841.92 7.86142Z" fill="white"/>
<path d="M1979.98 3.61203C1967 4.46192 1965.73 4.88687 1965.94 9.13635C1965.94 11.686 1957.64 36.333 1947.22 63.7421C1922.76 129.184 1924.24 123.022 1931.26 135.133C1934.46 140.87 1939.56 147.882 1942.75 150.644C1948.07 155.743 1948.5 155.743 1980.4 154.469C1998.06 153.831 2013.38 152.556 2014.44 151.494C2015.29 150.644 2011.25 143.42 2005.51 135.346L1995.08 121.11H1978.92C1966.79 121.11 1962.96 120.473 1963.81 118.348C1972.53 96.2507 1971.26 97.738 1982.11 97.738C1993.17 97.738 2018.27 94.3384 2019.97 92.6386C2021.67 90.9388 2008.06 70.5413 2001.89 65.8669C1999.12 63.5297 1994.23 61.6174 1991.47 61.6174C1987 61.6174 1986.57 60.98 1987.85 56.7305C1992.32 42.4947 1991.47 42.9197 2011.46 41.4324C2021.67 40.5825 2033.37 39.3076 2037.2 38.4578L2044.01 37.1829L2033.59 21.0349L2023.38 4.88687L2011.89 3.61203C2005.51 2.76213 1998.91 2.33718 1997.21 2.54966C1995.51 2.76213 1987.64 3.18708 1979.98 3.61203Z" fill="white"/>
<path d="M2064 35.4834C2024.86 116.436 2022.1 123.448 2024.86 130.672C2025.92 133.646 2031.46 140.87 2036.77 146.607L2046.77 157.231L2060.17 127.06C2067.62 110.487 2074.64 96.0385 2075.7 94.9761C2076.77 93.9137 2077.19 98.8006 2076.55 106.875C2074.85 126.635 2076.77 133.646 2087.4 145.545L2096.55 156.169L2100.38 148.732C2108.68 132.159 2127.61 99.6505 2128.25 100.5C2128.88 100.925 2127.82 106.45 2126.12 112.824C2123.78 122.385 2123.78 125.147 2126.12 129.822C2131.01 139.596 2146.54 157.656 2148.24 155.744C2149.09 154.894 2155.26 133.009 2162.07 107.3C2168.66 81.5902 2175.47 55.8809 2177.17 50.1441C2178.88 44.4073 2180.15 37.8206 2180.15 35.9083C2180.15 32.0838 2155.69 4.24971 2152.5 4.24971C2151.43 4.24971 2141.86 17.4231 2131.01 33.3586C2120.38 49.5067 2110.59 63.5299 2109.31 64.8048C2108.04 66.0796 2107.82 60.9803 2108.89 50.3566C2110.16 36.5457 2109.74 32.9337 2106.55 28.0468C2101.44 20.1853 2084.21 2.12497 2081.87 2.12497C2080.81 2.12497 2072.72 17.2106 2064 35.4834Z" fill="white"/>
<path d="M2226.73 3.61253C2213.76 4.46243 2212.48 4.88738 2212.69 9.13686C2212.69 11.6865 2203.97 37.1834 2193.12 65.8674C2182.27 94.3389 2173.34 120.261 2173.34 123.448C2173.13 129.185 2178.66 138.746 2188.23 149.157C2193.34 154.894 2194.61 155.106 2212.91 155.106C2238.43 155.106 2260.98 152.769 2260.98 150.432C2260.98 147.882 2248.86 130.247 2243.54 124.935C2240.56 121.961 2236.52 121.111 2224.61 121.111C2213.33 121.111 2209.72 120.473 2210.57 118.348C2211.21 117.074 2213.12 111.974 2215.03 107.087L2218.65 98.5884L2241.84 96.4636C2254.6 95.1888 2265.66 93.7015 2266.51 93.0641C2268.22 91.1518 2251.2 66.5048 2246.09 63.7427C2243.97 62.6803 2240.14 61.6179 2237.58 61.6179C2233.75 61.6179 2233.33 60.768 2234.61 56.731C2238.43 44.4075 2239.71 42.4953 2244.39 42.4953C2253.11 42.4953 2286.94 38.4583 2288 37.3959C2289.06 36.3335 2278.43 17.2109 2272.68 9.77428C2269.7 5.73727 2255.88 2.12522 2246.09 2.55016C2243.11 2.76264 2234.39 3.18759 2226.73 3.61253Z" fill="white"/>
<path d="M2315.45 9.56122C2307.58 28.2589 2278.01 108.149 2275.67 117.073C2273.12 126.634 2273.33 127.059 2280.77 138.533C2295.88 161.055 2294.6 161.48 2309.07 125.997L2321.62 94.9758L2322.89 106.662C2324.38 119.41 2326.72 124.085 2343.53 145.332C2355.02 159.78 2355.23 159.78 2357.78 154.893C2365.01 140.87 2401.39 46.7442 2401.39 42.0697C2401.39 36.5454 2387.99 14.4481 2380.54 7.86143C2376.71 4.24937 2376.29 5.09927 2366.08 32.9334C2360.33 48.6564 2355.02 61.6173 2354.16 61.6173C2353.1 61.6173 2352.46 57.1554 2352.46 51.4186C2352.46 40.7949 2349.06 34.2082 2333.74 15.298C2322.47 1.48721 2319.28 0.424843 2315.45 9.56122Z" fill="white"/>
<path d="M2423.3 3.82478C2410.11 4.03725 2399.26 4.88715 2399.26 5.52457C2399.26 7.01189 2411.38 24.6472 2419.25 34.421C2423.3 39.7329 2427.34 42.495 2430.53 42.495C2433.29 42.495 2435.42 42.92 2435.42 43.1325C2435.42 43.5574 2429.68 60.1304 2422.44 79.678C2415.43 99.438 2409.47 118.348 2409.47 121.535C2409.26 125.572 2412.87 132.796 2419.47 142.358C2425 150.644 2430.1 157.231 2430.95 157.231C2431.59 157.231 2442.44 131.097 2454.78 99.2256L2477.54 41.4327L2493.71 40.1578C2502.86 39.3079 2510.51 38.458 2510.94 38.0331C2512.22 36.5458 2493.07 8.71168 2489.24 6.79942C2484.56 4.24973 2455.63 2.97488 2423.3 3.82478Z" fill="white"/>
<path d="M1944.83 253.713C1941.84 262.04 1901.22 365.6 1880.91 417.06C1815.92 581.261 1775.09 691.44 1769.1 719.625C1767.39 727.098 1767.82 729.661 1771.88 736.92C1780.43 751.867 1798.18 773.86 1831.96 811.441C1860.17 842.829 1866.16 848.381 1872.57 849.662C1882.83 851.583 1958.51 847.313 2032.69 840.694C2065.62 837.918 2093.19 835.142 2094.05 834.928C2096.4 834.288 2078.23 805.889 2058.13 778.771C2036.97 749.945 2014.74 726.031 2005.97 722.401C2001.27 720.479 1988.66 720.052 1960.01 720.692C1938.2 721.333 1920.46 721.547 1920.46 721.333C1920.46 721.333 1924.31 711.511 1929.22 699.981C1992.5 546.029 2033.98 442.469 2043.38 414.497C2048.73 399.551 2048.3 393.999 2041.67 378.198C2036.11 365.387 2016.45 336.988 1987.59 300.688C1945.04 246.88 1946.54 248.802 1944.83 253.713Z" fill="white"/>
<path d="M1713.52 260.546C1703.9 278.909 1582.26 610.3 1558.32 682.899C1552.98 699.34 1548.49 715.568 1548.49 718.985C1548.49 733.718 1584.61 785.391 1622.03 824.253C1634.21 837.064 1644.69 846.886 1645.11 846.246C1645.54 845.605 1651.1 831.726 1657.3 815.285C1663.71 798.843 1691.08 728.166 1718.44 658.344C1782.79 493.929 1809.08 422.398 1814.64 396.348C1817.85 380.974 1794.12 344.035 1746.02 288.945C1735.12 276.561 1724 264.176 1721.01 261.614C1715.88 256.703 1715.45 256.703 1713.52 260.546Z" fill="white"/>
<path d="M1232.09 271.222C1205.58 272.93 1183.56 274.852 1183.14 275.279C1179.93 278.268 1234.23 357.273 1262.23 390.583C1280.62 412.789 1287.46 416.846 1306.91 418.554C1315.04 419.195 1321.88 420.049 1321.88 420.263C1321.88 420.476 1311.19 448.875 1298.15 483.466C1249.19 613.716 1221.83 693.788 1219.91 713.86C1218.84 724.75 1219.48 727.098 1228.24 743.753C1239.79 766.387 1262.02 800.337 1282.54 827.028C1300.71 850.729 1309.05 859.27 1309.05 854.359C1309.05 849.875 1325.94 805.889 1378.53 672.222C1434.75 529.588 1462.97 456.562 1471.74 431.579L1479.01 411.081L1487.56 409.8C1492.26 409.159 1521.55 407.665 1552.76 406.17C1583.97 404.889 1609.84 403.394 1610.27 402.967C1613.47 400.191 1570.93 333.358 1545.7 301.543C1528.39 279.55 1525.4 277.414 1506.37 274.211C1466.18 267.165 1320.17 265.67 1232.09 271.222Z" fill="white"/>
<path d="M2134.24 271.222C2105.38 272.93 2081.43 274.638 2081.01 275.065C2078.01 278.268 2137.23 363.678 2165.02 396.348C2178.92 412.576 2187.04 417.06 2204.57 418.554C2212.91 419.195 2219.75 420.69 2219.75 421.544C2219.75 422.398 2215.26 434.569 2209.91 448.448C2168.23 556.278 2124.19 681.617 2119.06 707.027C2116.71 719.838 2116.92 721.547 2121.41 732.65C2132.74 760.195 2175.28 824.039 2200.08 850.943L2205.43 856.708L2220.82 815.711C2229.37 793.078 2260.58 713.219 2290.3 638.058C2333.91 527.239 2371.96 429.017 2376.88 413.43C2377.3 412.149 2381.79 410.44 2386.92 409.8C2395.26 408.519 2487.19 404.248 2503.65 404.248H2510.91L2501.72 387.593C2485.9 358.767 2447 302.397 2430.75 285.315C2418.56 272.503 2392.7 269.514 2277.47 268.66C2213.33 268.233 2171.22 268.873 2134.24 271.222Z" fill="white"/>
<path d="M620.465 98.9514C620.465 98.9514 620.776 98.9514 620.776 104.941C620.776 108.941 615.445 159.227 610.157 209.119L610.156 209.125L610.156 209.127L610.15 209.18C607.524 233.961 604.908 258.641 602.961 277.498L815.264 61.3578C822.991 53.057 826.604 51.36 828.734 50.5773C837.337 47.463 868.724 50.0373 902.542 56.8041C934.489 63.0495 965.898 71.4584 964.64 73.4438C946.964 98.6945 865.691 185.627 785.113 271.815L785.098 271.831C743.45 316.379 701.988 360.728 669.592 396.256C713.621 396.256 757.991 396.075 802.573 395.894C875.792 395.595 949.582 395.294 1023.37 395.789C1007.21 437.15 970.843 505.139 952.387 520.584C944.206 525.035 939.102 525.035 926.342 525.035L726.552 517.361C825.822 593.831 987.588 717.791 1090 795.182C1027.22 831.125 965.589 850.926 955.361 845.61C953.384 844.633 950.131 842.676 945.782 839.87C852.401 777.708 762.701 709.441 671.482 644.147C676.914 655.616 682.094 666.637 687.161 677.418L687.176 677.448C719.181 745.542 719.379 746.602 777.389 848.263C698.786 860.615 644.559 859.598 629.473 846.934C628.921 846.462 628.398 846.026 627.899 845.61C624.046 842.396 621.561 840.323 617.042 831.287L528.379 617.414C522.725 631.857 517.207 646.359 511.688 660.862C498.895 694.482 486.099 728.11 471.604 761.027C468.438 767.778 465.934 772.088 464.254 773.384C450.606 783.83 393.729 798.254 331.275 803.835C333.256 797.048 343.474 767.688 357.581 728.089L430.266 528.136L121.348 549.513C64.2361 553.752 22.0586 557.118 18.2993 558.946C41.6665 487.143 75.4462 428.673 87.0726 425.648C92.8094 424.027 107.18 422.992 118.573 422.992L370.585 407.913L76.0681 129.854C36.2761 94.4773 5.93938 67.1109 0 61.1604C60.1527 34.9641 119.624 19.6821 137.403 22.4267C143.035 23.3208 150.122 27.8271 164.598 41.5742L471.221 328.992L491.709 127.022L491.461 127.025C496.001 77.9507 502.305 8.62387 502.703 2.24409C502.71 2.0943 502.716 1.94822 502.722 1.8071C502.876 -2.18654 502.876 -2.20348 548.479 30.2874C580.46 52.9423 603.119 71.3528 610.65 80.4397C616.864 88.1251 619.608 92.617 620.465 98.9514Z" fill="white"/>
</g>
<defs>
<clipPath id="clip0_289_43">
<rect width="2511" height="857" fill="white"/>
</clipPath>
</defs>
</svg>
