<?xml version="1.0" encoding="UTF-8"?>
<svg version="1.1" xmlns="http://www.w3.org/2000/svg" width="1251" height="685">
<path d="M0 0 C0.66241699 0.20431641 1.32483398 0.40863281 2.00732422 0.61914062 C20.82947141 6.63077699 38.71976688 16.53374175 54 29 C54.58539551 29.46873535 55.17079102 29.9374707 55.77392578 30.42041016 C83.77515679 52.96021883 99.56619115 81.6481846 114 114 C114.40702148 114.90282715 114.81404297 115.8056543 115.23339844 116.73583984 C134.53239132 159.73053846 136.54347241 207.69472713 120.55859375 252.08984375 C113.38665541 270.71343295 103.80689614 287.49312271 90.91015625 302.73046875 C89.19300341 304.77068511 87.57651171 306.85021131 86 309 C86.66 309.33 87.32 309.66 88 310 C88 314.95 88 319.9 88 325 C86.09541016 324.91685547 86.09541016 324.91685547 84.15234375 324.83203125 C71.16070573 324.63926192 64.58941031 327.27390776 54.83300781 335.54541016 C49.4432327 339.82248529 43.08611524 342.84364093 37 346 C36.34338379 346.34659668 35.68676758 346.69319336 35.01025391 347.05029297 C-5.36430767 368.13379593 -53.86349367 370.41333455 -97 357 C-97.6609668 356.79568359 -98.32193359 356.59136719 -99.00292969 356.38085938 C-140.43106198 343.15241369 -177.13366672 311.86996099 -197.08349609 273.26904297 C-201.66478564 264.11331867 -205.80402429 254.73768595 -209.94042969 245.375 C-210.91153383 243.19829469 -211.90677181 241.03513752 -212.9140625 238.875 C-221.89620319 219.40436666 -228.06491024 197.55203099 -228.203125 176.01171875 C-228.21371445 174.90701736 -228.21371445 174.90701736 -228.22451782 173.77999878 C-228.45375093 142.84248714 -228.45375093 142.84248714 -225 129 C-224.79068848 128.1548584 -224.58137695 127.3097168 -224.36572266 126.43896484 C-212.74714471 80.82802934 -185.47631685 41.03423479 -144.84912109 16.53417969 C-100.64980355 -9.292755 -48.96131366 -15.11219254 0 0 Z M-94 127 C-95.19882812 128.03060547 -95.19882812 128.03060547 -96.421875 129.08203125 C-110.25367076 141.93606214 -119.53344787 161.07914186 -120.25 179.953125 C-120.28173536 181.7185877 -120.30257108 183.48428001 -120.3125 185.25 C-120.31805908 186.07757813 -120.32361816 186.90515625 -120.3293457 187.7578125 C-120.20527006 198.37953559 -118.13785415 205.06747422 -111 213 C-110.13568359 214.00353516 -110.13568359 214.00353516 -109.25390625 215.02734375 C-95.64430058 229.80766818 -76.4576562 236.49635932 -56.87890625 238.28515625 C-38.44495294 238.86043566 -20.2879835 232.5861672 -6 221 C-5.17113281 220.34515625 -4.34226562 219.6903125 -3.48828125 219.015625 C11.24561903 206.65088174 20.78572883 188.05854833 23 169 C23.7435765 154.80444862 23.87277355 143.97192925 14 133 C13.42378906 132.33097656 12.84757813 131.66195312 12.25390625 130.97265625 C-0.89332001 116.6944858 -19.90369709 109.08042168 -38.984375 107.71484375 C-59.72601634 107.00257599 -78.33618386 113.51171388 -94 127 Z " fill="#1C82B7" transform="translate(847,16)"/>
<path d="M0 0 C31.42164076 -0.64954296 61.57249297 7.22274422 89.0859375 22.125 C89.7135498 22.46370117 90.34116211 22.80240234 90.98779297 23.15136719 C109.01592398 33.03609614 128.52549988 47.94905051 140.0859375 65.125 C139.87263242 68.53788129 138.12096484 70.48496453 136.0859375 73.125 C136.570625 73.58648437 137.0553125 74.04796875 137.5546875 74.5234375 C142.88471947 79.70996861 147.54932762 85.23705951 152.0859375 91.125 C148.18110382 95.79799695 144.12447392 100.22828418 139.80517578 104.51928711 C138.91140984 105.41327209 138.91140984 105.41327209 137.99958801 106.32531738 C136.05417278 108.27004295 134.10525336 110.2112148 132.15625 112.15234375 C130.79697133 113.50975488 129.4379151 114.86738879 128.07907104 116.22523499 C124.52048303 119.78002433 120.95890105 123.33179893 117.39666748 126.88293457 C113.7548043 130.51452638 110.11580787 134.14898832 106.4765625 137.78320312 C99.34914239 144.89993271 92.21855309 152.01347777 85.0859375 159.125 C82.66323951 156.7692018 80.83428459 154.38157062 78.9609375 151.5625 C65.99787078 132.98210437 49.23428976 122.69493581 27.0859375 118.125 C5.66970358 114.86652119 -14.24996817 120.82377671 -31.75 133.1171875 C-48.33191258 145.79747359 -58.1112375 164.56268206 -60.9140625 185.125 C-61.24448715 191.12016061 -61.09336062 197.12691742 -60.9140625 203.125 C-60.8934375 204.10726562 -60.8728125 205.08953125 -60.8515625 206.1015625 C-59.98787277 214.38758583 -53.59958888 219.63418342 -47.9140625 225.125 C-46.93566406 226.13240234 -46.93566406 226.13240234 -45.9375 227.16015625 C-31.36443464 241.25173266 -10.72860833 245.70509157 8.84375 245.39453125 C29.98349015 244.61513291 47.67871595 233.82858153 62.23828125 219.140625 C64.23920828 217.06120927 64.23920828 217.06120927 66.0859375 214.125 C68.90978117 215.41096263 70.96162178 216.75207571 73.14849854 218.947052 C74.01499023 219.80941971 74.01499023 219.80941971 74.89898682 220.68920898 C75.83119049 221.63219849 75.83119049 221.63219849 76.78222656 222.59423828 C77.44605347 223.25777313 78.10988037 223.92130798 78.79382324 224.60494995 C80.98451083 226.7970297 83.16803114 228.99610625 85.3515625 231.1953125 C86.86998587 232.71746639 88.38885171 234.23917902 89.90814209 235.76046753 C93.9041338 239.76409255 97.89408279 243.77368759 101.8828125 247.7845459 C105.95470805 251.87690629 110.03227676 255.96360529 114.109375 260.05078125 C122.10713221 268.06998305 130.09851853 276.09550181 138.0859375 284.125 C136.87128533 287.20245908 135.60946518 290.18676804 134.0859375 293.125 C134.54556885 293.55321045 135.0052002 293.9814209 135.47875977 294.42260742 C137.55088828 296.37007685 139.59952699 298.34062999 141.6484375 300.3125 C142.73415039 301.32280273 142.73415039 301.32280273 143.84179688 302.35351562 C144.86176758 303.34448242 144.86176758 303.34448242 145.90234375 304.35546875 C146.85282593 305.25881958 146.85282593 305.25881958 147.82250977 306.18041992 C149.0859375 308.125 149.0859375 308.125 149.02929688 310.58300781 C147.89190764 313.64783615 146.47851732 315.24945419 144.17578125 317.56640625 C142.95036621 318.8042688 142.95036621 318.8042688 141.70019531 320.06713867 C140.81686523 320.93185791 139.93353516 321.79657715 139.0234375 322.6875 C138.11819336 323.57993408 137.21294922 324.47236816 136.28027344 325.3918457 C124.08479775 337.22591836 111.10192167 346.26469114 96.0859375 354.125 C95.05984375 354.67800781 94.03375 355.23101562 92.9765625 355.80078125 C81.61687573 361.74159041 69.89545094 365.87744429 57.4609375 368.875 C56.63924072 369.07359619 55.81754395 369.27219238 54.97094727 369.47680664 C41.77707288 372.50161731 28.87985761 373.50348766 15.3984375 373.4375 C14.60468719 373.43534485 13.81093689 373.4331897 12.99313354 373.43096924 C1.13427416 373.37933306 -10.35288296 372.99801073 -21.9140625 370.125 C-23.16582275 369.81900879 -23.16582275 369.81900879 -24.44287109 369.50683594 C-70.64520274 357.89922875 -110.21742218 329.98479983 -134.85253906 288.95947266 C-141.41463684 277.61917765 -146.56735071 265.46735826 -151.85449219 253.5 C-152.82559633 251.32329469 -153.82083431 249.16013752 -154.828125 247 C-174.33239621 204.72577359 -174.74843353 156.81707098 -159.578125 113.2109375 C-152.96114726 95.65490986 -143.80239792 79.60541371 -131.9140625 65.125 C-131.4176123 64.51043945 -130.92116211 63.89587891 -130.40966797 63.26269531 C-101.02530536 27.03697182 -58.46526806 5.89972274 -12.36328125 0.7265625 C-8.24395963 0.36149687 -4.13071787 0.17718897 0 0 Z " fill="#1B82B7" transform="translate(441.9140625,1.875)"/>
<path d="M0 0 C21.23174485 -0.63142736 40.77522086 6.58894377 56.9765625 20.125 C57.64300781 20.64578125 58.30945313 21.1665625 58.99609375 21.703125 C73.81175157 33.74267337 83.637413 53.28063676 85.9765625 72.125 C87.47543754 99.38578979 82.14013286 121.22712116 64.15234375 142.2578125 C55.656342 151.34158796 44.39827302 158.37437704 32.9765625 163.125 C31.49349609 163.74568359 31.49349609 163.74568359 29.98046875 164.37890625 C12.09064465 170.42646752 -12.77748932 169.71173686 -30.0234375 162.125 C-30.66087891 161.84624023 -31.29832031 161.56748047 -31.95507812 161.28027344 C-52.64487565 151.96677036 -67.91771146 135.31262737 -76.22607422 114.28076172 C-84.06390392 93.09030359 -83.25081259 69.46309944 -73.91040039 48.89990234 C-64.2235239 28.6430436 -48.02879754 13.23623922 -27.03125 5.1171875 C-18.19829935 2.20346092 -9.261649 0.5721482 0 0 Z M-27.0234375 59.125 C-33.30484103 69.30829371 -36.04340144 79.21407338 -33.33984375 91.140625 C-30.05946382 100.88648405 -23.9379319 109.45680212 -14.71875 114.34765625 C-5.7023987 118.4715284 3.50259868 119.83149401 13.28125 117.25390625 C24.36904325 112.95139106 31.88807046 105.66559156 37.14453125 95.08984375 C40.52894765 87.09753648 40.10801481 76.48643918 37.5390625 68.3125 C33.68683697 59.1463889 25.88452037 51.60729024 17.0703125 47.1640625 C1.00840126 40.6314195 -16.1698078 46.24715872 -27.0234375 59.125 Z " fill="#1B81B8" transform="translate(944.0234375,517.875)"/>
<path d="M0 0 C12.54 0 25.08 0 38 0 C50.66666667 14.77777778 50.66666667 14.77777778 56.65625 22.15625 C59.89468872 26.08555565 63.22145186 29.93626602 66.54541016 33.79321289 C70.39558978 38.27029495 74.15519117 42.8096581 77.8671875 47.40234375 C80.52814438 50.64325277 83.27100411 53.81617146 86 57 C86.33 38.19 86.66 19.38 87 0 C101.52 0 116.04 0 131 0 C131 43.89 131 87.78 131 133 C118.46 133 105.92 133 93 133 C80.18309859 118.04694836 80.18309859 118.04694836 74.26953125 110.76953125 C70.38269785 106.02639032 66.4041339 101.36107206 62.43359375 96.68798828 C59.9941074 93.81560943 57.55961034 90.93901164 55.125 88.0625 C54.68494629 87.54316895 54.24489258 87.02383789 53.79150391 86.48876953 C50.84325579 83.00671917 47.92107642 79.5052917 45 76 C44.67 94.81 44.34 113.62 44 133 C29.48 133 14.96 133 0 133 C0 89.11 0 45.22 0 0 Z " fill="#1B81B7" transform="translate(1039,542)"/>
<path d="M0 0 C1.0621875 0.36222656 2.124375 0.72445312 3.21875 1.09765625 C17.03844127 6.351276 29.89679317 15.58427498 38 28 C33.48631271 32.56425086 28.9649178 37.120758 24.43798828 41.671875 C22.89777374 43.22216905 21.35935603 44.77425036 19.82275391 46.328125 C17.61827047 48.55677105 15.40747954 50.77898391 13.1953125 53 C12.50567413 53.69996094 11.81603577 54.39992188 11.10549927 55.12109375 C10.14472977 56.08208984 10.14472977 56.08208984 9.16455078 57.0625 C8.60051544 57.63097656 8.0364801 58.19945312 7.45535278 58.78515625 C6 60 6 60 4 60 C2.73828125 58.4609375 2.73828125 58.4609375 1.3125 56.375 C-4.5997703 48.29204109 -12.04346452 42.98382098 -22 41 C-32.64907808 40.03477896 -42.5933232 42.08784352 -51 49 C-57.56481334 55.37210844 -63.06197388 62.61973879 -64 72 C-64.06316406 72.6084375 -64.12632812 73.216875 -64.19140625 73.84375 C-64.7494371 83.78029926 -61.45145518 93.53529792 -54.984375 101.06640625 C-47.69275196 108.17143263 -38.85242605 112.32697236 -28.703125 113.05859375 C-19.00437911 112.84836082 -9.19849541 109.1750259 -2.26953125 102.27734375 C-0.73769044 100.5073648 -0.73769044 100.5073648 1 98 C3.99943905 99.34572887 6.08076179 100.83537101 8.39160156 103.16455078 C9.35214447 104.12532028 9.35214447 104.12532028 10.33209229 105.10549927 C11.01140808 105.79513763 11.69072388 106.484776 12.390625 107.1953125 C13.09523865 107.90275604 13.79985229 108.61019958 14.52581787 109.33908081 C16.7719539 111.59639862 19.01103009 113.86057633 21.25 116.125 C22.77297717 117.65800953 24.29640939 119.19056715 25.8203125 120.72265625 C29.55216815 124.47654573 33.27825351 128.23608914 37 132 C36.06714168 133.2754154 35.1298218 134.54756821 34.19067383 135.81835938 C33.66919266 136.52714233 33.14771149 137.23592529 32.61042786 137.96618652 C30.27931032 140.91016085 27.64989863 143.21301615 24.6875 145.5 C24.08848877 145.962854 23.48947754 146.42570801 22.87231445 146.90258789 C3.71204642 161.13333205 -19.5251148 165.73020129 -42.984375 162.52734375 C-64.65040929 158.43432596 -84.52486099 146.39822599 -97.08984375 128.10546875 C-104.73054117 115.68347601 -111.37483838 101.82154014 -112 87 C-112.0515625 85.92621094 -112.103125 84.85242188 -112.15625 83.74609375 C-112.7532504 59.89095273 -104.72720482 38.02383879 -88.45117188 20.49414062 C-65.80324125 -2.82438822 -30.57744495 -10.50238819 0 0 Z " fill="#1B81B8" transform="translate(193,520)"/>
<path d="M0 0 C14.85 0 29.7 0 45 0 C45.33 14.52 45.66 29.04 46 44 C57.13802552 32.12501858 57.13802552 32.12501858 68 20 C70.5034466 17.26925433 73.02058983 14.55334335 75.54882812 11.84570312 C76.03931641 11.31783203 76.52980469 10.78996094 77.03515625 10.24609375 C77.50416855 9.75298706 77.97318085 9.25988037 78.45640564 8.75183105 C80.02692561 7.05252703 80.02692561 7.05252703 81.19691467 5.17578125 C83.27500384 2.16732643 84.83744797 0.28903903 88.46565247 -0.61302185 C91.50812822 -0.81003287 94.47630341 -0.7871862 97.5234375 -0.68359375 C99.17540634 -0.6687368 99.17540634 -0.6687368 100.86074829 -0.65357971 C104.36687239 -0.61449767 107.86982761 -0.52667974 111.375 -0.4375 C113.7564651 -0.40237849 116.13797943 -0.37044097 118.51953125 -0.34179688 C124.34742929 -0.26475623 130.17348826 -0.14772773 136 0 C133.75222845 3.42189414 131.6748403 6.56590197 128.6875 9.375 C126.28019574 11.71120244 124.00181709 14.08325626 121.8125 16.625 C118.65917569 20.28143897 115.40727248 23.83484201 112.125 27.375 C107.81159136 32.029292 103.53240059 36.70958776 99.3125 41.44921875 C97.5654499 43.37628583 95.79876713 45.26684094 94 47.14453125 C93.49154541 47.68134521 92.98309082 48.21815918 92.45922852 48.77124023 C91.46520172 49.81885166 90.46336124 50.85911899 89.45288086 51.89086914 C86.59084709 54.92514782 86 55.63214869 86 60 C87.30618089 62.25223307 87.30618089 62.25223307 89.1484375 64.4921875 C89.81875 65.35457031 90.4890625 66.21695313 91.1796875 67.10546875 C91.90414062 68.01941406 92.62859375 68.93335938 93.375 69.875 C94.86360158 71.78780099 96.35058396 73.7018632 97.8359375 75.6171875 C98.5587793 76.5462793 99.28162109 77.47537109 100.02636719 78.43261719 C102.43690353 81.5683421 104.72925288 84.7616493 107 88 C111.1625284 93.92839516 115.53441725 99.68607545 119.9375 105.4375 C124.83871072 111.84091796 129.72113612 118.25454205 134.5 124.75 C134.96269287 125.37575928 135.42538574 126.00151855 135.90209961 126.64624023 C139 130.87788653 139 130.87788653 139 132 C131.71083815 132.4603498 124.42546198 132.77309149 117.125 132.98876953 C114.64864174 133.07873098 112.17322492 133.20116884 109.70019531 133.35791016 C89.81063479 134.58595808 89.81063479 134.58595808 83.58401489 130.36047363 C79.30616592 126.21663046 76.25500522 121.40114895 73.31872559 116.25140381 C71.51296355 113.16850349 69.40475765 110.50405082 67.16796875 107.71875 C65.84024604 105.97985333 64.51338064 104.24030163 63.1875 102.5 C62.49591797 101.59636719 61.80433594 100.69273437 61.09179688 99.76171875 C60.43630859 98.90191406 59.78082031 98.04210937 59.10546875 97.15625 C58.52949951 96.40150391 57.95353027 95.64675781 57.36010742 94.86914062 C56 93 56 93 55 91 C50.91950868 92.51129308 48.22814287 95.34239323 46 99 C45.50284829 101.79737565 45.27666715 104.01760783 45.29296875 106.8046875 C45.27834595 107.44736572 45.26372314 108.09004395 45.24865723 108.75219727 C45.20170638 111.12608811 45.19701753 113.50066398 45.1875 115.875 C45.125625 121.19625 45.06375 126.5175 45 132 C30.15 132 15.3 132 0 132 C0 88.44 0 44.88 0 0 Z " fill="#1B81B7" transform="translate(561,541)"/>
<path d="M0 0 C1.08716309 0.00491455 2.17432617 0.0098291 3.29443359 0.01489258 C18.91228947 0.23998363 36.43022181 2.65929756 49.8125 11.3125 C49.22528371 15.7217732 48.11249573 19.42464397 46.37890625 23.515625 C45.6528418 25.23265625 45.6528418 25.23265625 44.91210938 26.984375 C44.15124023 28.75554688 44.15124023 28.75554688 43.375 30.5625 C42.87162109 31.75875 42.36824219 32.955 41.84960938 34.1875 C38.07504618 43.04995382 38.07504618 43.04995382 35.8125 45.3125 C34.95269531 44.91417969 34.09289062 44.51585937 33.20703125 44.10546875 C22.26804459 39.20260777 12.02419659 36.10251504 -0.0625 35.9375 C-1.11497925 35.91647217 -1.11497925 35.91647217 -2.1887207 35.89501953 C-7.28032171 35.94223685 -10.77517306 36.93402414 -15.1875 39.3125 C-16.23917527 41.88982914 -16.23917527 41.88982914 -16.1875 44.3125 C-11.96910731 47.40103737 -8.65033313 48.97887774 -3.4609375 50.09375 C-1.54087891 50.52107422 -1.54087891 50.52107422 0.41796875 50.95703125 C1.75761857 51.24309721 3.09746372 51.52824988 4.4375 51.8125 C40.20086832 59.52202138 40.20086832 59.52202138 49.8125 72.3125 C55.93226577 82.62366785 57.52881379 92.84862113 55.12890625 104.68359375 C51.6614034 115.97815697 44.75983283 124.17493926 34.64453125 130.19921875 C26.94373349 134.27611168 19.43769984 136.87878992 10.8125 138.3125 C9.69875 138.50779297 9.69875 138.50779297 8.5625 138.70703125 C-13.21874183 141.80095765 -43.04970358 138.94800236 -62.1875 127.3125 C-63.5012207 125.67895508 -63.5012207 125.67895508 -64.1875 123.3125 C-63.36415346 120.74481383 -62.48053046 118.55023748 -61.3203125 116.140625 C-60.84995071 115.1169986 -60.84995071 115.1169986 -60.37008667 114.07269287 C-59.36552932 111.89548168 -58.33945001 109.7292253 -57.3125 107.5625 C-56.62746388 106.08790879 -55.94385214 104.61265498 -55.26171875 103.13671875 C-53.58674114 99.5207508 -51.89239138 95.91445442 -50.1875 92.3125 C-46.52130185 92.98949466 -43.64679798 93.94746379 -40.3125 95.625 C-24.8061134 102.87392057 -6.84452291 105.82965876 9.8125 101.3125 C10.14647787 98.43836875 10.14647787 98.43836875 9.8125 95.3125 C6.42583763 91.77432905 1.90357754 91.05886383 -2.6875 89.9375 C-3.93696411 89.61724854 -3.93696411 89.61724854 -5.21166992 89.29052734 C-9.59290773 88.17443966 -13.98509734 87.1235508 -18.39453125 86.125 C-31.55713988 83.09865222 -46.29085834 79.33525324 -55.1875 68.3125 C-61.93386872 57.31072947 -63.79172533 46.85259932 -61.0625 34.25 C-58.09240977 23.42443749 -50.85476781 15.1120514 -41.5 9.125 C-28.71203084 1.8701007 -14.50572605 -0.07864962 0 0 Z " fill="#1B81B7" transform="translate(763.1875,538.6875)"/>
<path d="M0 0 C3.66156917 3.0624033 6.59246197 5.80251922 8.7109375 10.171875 C4.24771584 14.74192909 -0.28650764 19.14696145 -5.140625 23.30078125 C-6.74380353 24.69700401 -8.31746049 26.12725984 -9.875 27.57421875 C-10.75414062 28.39019531 -11.63328125 29.20617187 -12.5390625 30.046875 C-13.34859375 30.80742188 -14.158125 31.56796875 -14.9921875 32.3515625 C-18.52260006 35.14947449 -18.52260006 35.14947449 -21.2890625 35.171875 C-23.078125 33.6953125 -23.078125 33.6953125 -24.9140625 31.546875 C-30.1256755 25.96370235 -37.32602556 21.52932364 -45.109375 20.96875 C-56.14516291 20.812214 -63.18498154 22.19006268 -71.33984375 29.91796875 C-77.72210426 37.29785715 -78.66244001 46.26161446 -78.56640625 55.68359375 C-77.9515273 63.41721214 -75.59067482 71.02290061 -70.12890625 76.70703125 C-62.88884863 82.47140834 -54.49237867 85.04071953 -45.2890625 84.171875 C-35.2210827 82.2557111 -27.36064373 77.39788828 -21.2890625 69.171875 C-17.36548802 70.78801401 -14.57518718 73.48522839 -11.5390625 76.359375 C-10.469366 77.35613024 -9.39905268 78.35222393 -8.328125 79.34765625 C-7.80895508 79.83186035 -7.28978516 80.31606445 -6.75488281 80.81494141 C-1.75414692 85.44420358 3.4556204 89.83623839 8.7109375 94.171875 C3.88441307 105.16149987 -8.36903667 112.27443592 -18.96484375 116.7109375 C-41.59732727 124.74864193 -66.43651307 124.42621304 -88.2890625 114.171875 C-104.41130848 106.08718148 -116.56417965 92.29136929 -122.29296875 75.171875 C-127.70191858 55.94005337 -126.44541778 36.10932509 -117.2890625 18.171875 C-107.14520577 0.61928522 -92.01094332 -9.44020216 -72.98046875 -14.91796875 C-47.5296341 -21.19314809 -20.46303647 -16.34249329 0 0 Z " fill="#1B81B8" transform="translate(543.2890625,555.828125)"/>
<path d="M0 0 C0.66241699 0.20431641 1.32483398 0.40863281 2.00732422 0.61914062 C20.82947141 6.63077699 38.71976688 16.53374175 54 29 C54.58539551 29.46873535 55.17079102 29.9374707 55.77392578 30.42041016 C78.25136521 48.51379983 98.37993 73.43640813 108 101 C107.67 101.99 107.34 102.98 107 104 C106.47792969 103.15179688 105.95585938 102.30359375 105.41796875 101.4296875 C81.00480441 62.27724442 43.45705252 33.07331584 -1.8359375 22.32714844 C-48.4063031 12.26348382 -95.83395123 19.1954807 -136.45898438 44.53369141 C-146.13643815 50.81352618 -154.76628739 57.93664007 -163 66 C-164.01636049 66.96674186 -165.03329843 67.93287695 -166.05078125 68.8984375 C-176.93225274 79.35230561 -185.46752728 90.91728422 -193 104 C-193.98613281 105.68996094 -193.98613281 105.68996094 -194.9921875 107.4140625 C-204.70551679 124.51925191 -210.28773321 142.76767879 -214 162 C-214.24621094 163.17046875 -214.49242187 164.3409375 -214.74609375 165.546875 C-218.96191357 188.92286905 -216.0942696 213.81859704 -209.8671875 236.5546875 C-208.99288502 240.02826761 -208.44511088 243.44819688 -208 247 C-222.35807195 229.64885565 -228.06297383 197.85381279 -228.203125 176.01171875 C-228.21371445 174.90701736 -228.21371445 174.90701736 -228.22451782 173.77999878 C-228.45375093 142.84248714 -228.45375093 142.84248714 -225 129 C-224.79068848 128.1548584 -224.58137695 127.3097168 -224.36572266 126.43896484 C-212.74714471 80.82802934 -185.47631685 41.03423479 -144.84912109 16.53417969 C-100.64980355 -9.292755 -48.96131366 -15.11219254 0 0 Z " fill="#05D590" transform="translate(847,16)"/>
<path d="M0 0 C31.42164076 -0.64954296 61.57249297 7.22274422 89.0859375 22.125 C89.7135498 22.46370117 90.34116211 22.80240234 90.98779297 23.15136719 C109.04879621 33.05411981 128.45908597 47.95544867 140.0859375 65.125 C140.0859375 67.125 140.0859375 67.125 139.0859375 69.125 C137.44298555 70.48744796 135.77769413 71.82364875 134.0859375 73.125 C133.29896484 72.35929687 133.29896484 72.35929687 132.49609375 71.578125 C95.73263069 37.07796998 48.78693631 25.48805803 -0.29150391 26.8984375 C-10.73736908 27.32013407 -20.84427223 29.41473822 -30.9140625 32.125 C-31.7380957 32.34430176 -32.56212891 32.56360352 -33.41113281 32.78955078 C-76.67305498 44.76687681 -113.72229473 75.45062115 -135.7265625 114.1875 C-148.47450781 137.25696737 -156.88189741 163.14826498 -157.15234375 189.6640625 C-157.16204697 190.45945938 -157.17175018 191.25485626 -157.18174744 192.07435608 C-157.20656039 194.63295591 -157.21925781 197.19129206 -157.2265625 199.75 C-157.22918091 200.62194 -157.23179932 201.49388 -157.23449707 202.39224243 C-157.24001293 219.5235082 -155.88530165 235.89690952 -149.55078125 251.98046875 C-148.9140625 254.125 -148.9140625 254.125 -149.9140625 257.125 C-171.63388898 214.023211 -176.59211732 165.68082503 -161.69042969 119.46582031 C-155.08671713 99.55500396 -145.2149486 81.32595047 -131.9140625 65.125 C-131.4176123 64.51043945 -130.92116211 63.89587891 -130.40966797 63.26269531 C-101.02530536 27.03697182 -58.46526806 5.89972274 -12.36328125 0.7265625 C-8.24395963 0.36149687 -4.13071787 0.17718897 0 0 Z " fill="#05D590" transform="translate(441.9140625,1.875)"/>
<path d="M0 0 C14.85 0 29.7 0 45 0 C45 32.01 45 64.02 45 97 C64.8 97 84.6 97 105 97 C105 108.88 105 120.76 105 133 C70.35 133 35.7 133 0 133 C0 89.11 0 45.22 0 0 Z " fill="#1B82B7" transform="translate(243,542)"/>
<path d="M0 0 C15.18 0 30.36 0 46 0 C46 43.89 46 87.78 46 133 C30.82 133 15.64 133 0 133 C0 89.11 0 45.22 0 0 Z " fill="#1B82B7" transform="translate(355,542)"/>
<path d="M0 0 C8.99817745 7.57597311 13.04299807 24.73468651 14.20703125 36.00439453 C15.64096413 56.97566286 9.3476575 77.60856299 -4.41894531 93.65380859 C-17.89483782 108.6773164 -36.48902492 119.9264443 -57.01220703 121.11669922 C-67.0610353 121.56286986 -76.3308563 121.03852226 -86 118 C-87.05445313 117.67128906 -88.10890625 117.34257812 -89.1953125 117.00390625 C-108.82448543 110.16917013 -124.40691663 96.37123255 -134 78 C-139.50354301 66.51062902 -139.50354301 66.51062902 -138 62 C-137.57589844 62.56847656 -137.15179687 63.13695312 -136.71484375 63.72265625 C-123.43653795 81.20332697 -106.59044673 91.06701527 -84.83984375 94.49609375 C-65.14876956 97.08017165 -45.0903348 91.81017419 -29.2265625 79.79296875 C-28.49179687 79.20128906 -27.75703125 78.60960937 -27 78 C-26.24460937 77.41863281 -25.48921875 76.83726562 -24.7109375 76.23828125 C-10.26911561 64.40194269 -1.11622804 45.37877321 1 27 C1.13235766 24.04000139 1.14250402 21.08755528 1.125 18.125 C1.12306641 17.33432129 1.12113281 16.54364258 1.11914062 15.72900391 C1.07976597 10.42108198 0.77880772 5.25695213 0 0 Z " fill="#05D590" transform="translate(868,158)"/>
<path d="M0 0 C2.53734435 2.5191555 5.04927951 5.05204285 7.5078125 7.6484375 C21.89890552 22.64094934 40.51520314 31.74299293 61.44262695 32.4753418 C84.29624694 32.69569651 103.65858888 24.1940601 119.9375 8.25 C122.28331479 5.88349901 124.14469562 3.78295657 126 1 C128.82384367 2.28596263 130.87568428 3.62707571 133.06256104 5.822052 C133.92905273 6.68441971 133.92905273 6.68441971 134.81304932 7.56420898 C135.74525299 8.50719849 135.74525299 8.50719849 136.69628906 9.46923828 C137.36011597 10.13277313 138.02394287 10.79630798 138.70788574 11.47994995 C140.89857333 13.6720297 143.08209364 15.87110625 145.265625 18.0703125 C146.78404837 19.59246639 148.30291421 21.11417902 149.82220459 22.63546753 C153.8181963 26.63909255 157.80814529 30.64868759 161.796875 34.6595459 C165.86877055 38.75190629 169.94633926 42.83860529 174.0234375 46.92578125 C182.02119471 54.94498305 190.01258103 62.97050181 198 71 C196.7367158 74.35594194 195.74084921 76.63290296 193 79 C189.21698773 77.43056316 186.82743453 75.06898723 183.95605469 72.18310547 C183.46779205 71.69513489 182.97952942 71.20716431 182.47647095 70.70440674 C180.87015038 69.09669725 179.27102287 67.48202899 177.671875 65.8671875 C176.55701683 64.74859765 175.44171513 63.63044971 174.32598877 62.51272583 C171.39529391 59.57440675 168.47065578 56.63013045 165.54724121 53.68457031 C162.56117275 50.67801738 159.56941141 47.67714118 156.578125 44.67578125 C150.71316544 38.78939314 144.85459268 32.896699 139 27 C135.46352405 30.51817786 135.46352405 30.51817786 132.03515625 34.140625 C122.94174684 43.8642707 111.59398251 50.74640326 99 55 C98.07832031 55.31839844 97.15664063 55.63679688 96.20703125 55.96484375 C79.87722564 60.64591088 61.55913322 59.61307015 46 53 C44.94941406 52.56558594 43.89882813 52.13117188 42.81640625 51.68359375 C23.70112622 42.95867399 9.6457605 27.30380493 2 7.8125 C0 2.37171053 0 2.37171053 0 0 Z " fill="#05D590" transform="translate(382,215)"/>
<path d="M0 0 C4.30347532 3.35121695 7.3560169 7.38742479 8.7734375 12.6796875 C10.07658237 24.05869477 8.04714606 31.55129988 1.2734375 40.5546875 C-2.70371642 45.32874796 -7.15267056 49.45961038 -11.80859375 53.55078125 C-16.77189588 58.09432982 -21.46850609 62.92163109 -26.2265625 67.6796875 C-13.3565625 67.6796875 -0.4865625 67.6796875 12.7734375 67.6796875 C12.7734375 72.6296875 12.7734375 77.5796875 12.7734375 82.6796875 C-1.65155608 82.75096114 -16.0562719 82.5362463 -30.4765625 82.1796875 C-32.50520318 82.13129373 -34.53384901 82.08311567 -36.5625 82.03515625 C-41.45058355 81.91913983 -46.33858909 81.80025153 -51.2265625 81.6796875 C-51.85223729 71.71668553 -51.85223729 71.71668553 -49.5390625 67.8828125 C-48.7759375 67.23828125 -48.0128125 66.59375 -47.2265625 65.9296875 C-46.39769531 65.19878906 -45.56882812 64.46789062 -44.71484375 63.71484375 C-43.89371094 63.04324219 -43.07257812 62.37164062 -42.2265625 61.6796875 C-40.95284466 60.57884952 -39.68185822 59.4748406 -38.4140625 58.3671875 C-37.44533203 57.53767578 -37.44533203 57.53767578 -36.45703125 56.69140625 C-33.05708055 53.62490081 -29.86993061 50.35280911 -26.66235352 47.0871582 C-23.84104673 44.23180039 -20.97735748 41.58167118 -17.8515625 39.0546875 C-12.94605673 34.82651098 -9.09460343 29.62021865 -7.68359375 23.21484375 C-7.42170985 18.96099986 -7.83320337 17.1932397 -10.4765625 13.7421875 C-16.55090668 9.18642936 -21.71921742 8.75854086 -29.2265625 9.6796875 C-34.27725545 11.44709015 -38.58780814 13.71542157 -42.2265625 17.6796875 C-47.20669011 16.17055792 -50.46916192 13.12306901 -54.2265625 9.6796875 C-51.48077107 3.19345569 -44.54710626 -0.74049872 -38.2265625 -3.3203125 C-25.91269385 -7.39080131 -11.25684879 -6.67511384 0 0 Z " fill="#FBFDFE" transform="translate(922.2265625,258.3203125)"/>
</svg>
