<?xml version="1.0" encoding="UTF-8"?>
<svg version="1.1" xmlns="http://www.w3.org/2000/svg" width="401" height="250">
<path d="M0 0 C17.0284401 14.41888695 26.92658038 34.48728519 29.23046875 56.453125 C29.89796183 73.86598785 22.98729163 88.22964445 12.9453125 101.734375 C11.9453125 102.734375 11.9453125 102.734375 8.34765625 102.83203125 C6.85934383 102.8253572 5.37104818 102.81339683 3.8828125 102.796875 C3.12419922 102.79236328 2.36558594 102.78785156 1.58398438 102.78320312 C-0.29560621 102.7713818 -2.17515649 102.75344578 -4.0546875 102.734375 C-3.30703125 101.99574219 -2.559375 101.25710937 -1.7890625 100.49609375 C0.45272394 98.23188944 2.59933763 95.94426219 4.6953125 93.546875 C5.28828125 92.87269531 5.88125 92.19851562 6.4921875 91.50390625 C8.43631583 89.13645966 8.9219977 87.94887116 9.2578125 84.859375 C9.19207526 81.70524441 9.19207526 81.70524441 7.3828125 79.421875 C4.0939945 77.145001 1.94718781 76.80107292 -2.0546875 76.734375 C-4.8760337 77.51506274 -7.36014288 78.55255718 -10.0546875 79.734375 C-10.0546875 80.394375 -10.0546875 81.054375 -10.0546875 81.734375 C-9.20777344 81.49267578 -9.20777344 81.49267578 -8.34375 81.24609375 C-5.97615548 80.71681921 -3.85297175 80.56713657 -1.4296875 80.546875 C-0.65367187 80.53269531 0.12234375 80.51851563 0.921875 80.50390625 C2.9453125 80.734375 2.9453125 80.734375 4.9453125 82.734375 C5.5055583 85.74569617 5.53657641 87.78661374 3.8828125 90.4375 C0.56078228 94.44560168 -3.2872828 97.7837111 -7.3203125 101.05859375 C-9.41095289 102.89277397 -9.41095289 102.89277397 -11.0546875 106.734375 C-5.4446875 106.734375 0.1653125 106.734375 5.9453125 106.734375 C1.43888946 112.3674038 1.43888946 112.3674038 -1.55859375 113.8671875 C-2.21045654 114.1971875 -2.86231934 114.5271875 -3.53393555 114.8671875 C-4.56514526 115.35832031 -4.56514526 115.35832031 -5.6171875 115.859375 C-6.33753174 116.20484375 -7.05787598 116.5503125 -7.80004883 116.90625 C-23.61289358 124.31515189 -41.01432589 125.22534317 -57.765625 119.98828125 C-72.5996088 114.33304514 -83.25970366 104.81409456 -92.0546875 91.734375 C-92.77914062 90.66703125 -93.50359375 89.5996875 -94.25 88.5 C-98.7621219 81.54034334 -101.96347618 74.76840719 -104.0546875 66.734375 C-104.34279297 65.63802734 -104.34279297 65.63802734 -104.63671875 64.51953125 C-107.25403047 47.0789401 -104.77678118 29.64808366 -95.0546875 14.734375 C-84.80358071 1.02761451 -70.69491271 -9.40007996 -53.73046875 -12.79296875 C-34.04411282 -15.32437052 -16.22704075 -12.03540107 0 0 Z M-57.0546875 41.734375 C-62.03335122 48.42000914 -63.95010344 54.47344088 -63.0546875 62.734375 C-61.33565104 68.70044271 -58.25611857 72.47211823 -53.0546875 75.734375 C-46.05398012 78.54621345 -38.50764468 79.0603941 -31.234375 76.89453125 C-23.92192923 73.57374166 -18.3874201 68.31017827 -15.1171875 60.921875 C-13.19672093 54.86226621 -13.00077825 47.89311317 -15.1171875 41.859375 C-18.08875572 37.06652304 -21.7542687 34.85783535 -26.7421875 32.421875 C-38.62854553 29.95489503 -49.06516722 32.09995349 -57.0546875 41.734375 Z " fill="#3486C4" transform="translate(304.0546875,15.265625)"/>
<path d="M0 0 C8.17224731 6.38169874 15.67475582 14.05358979 21 23 C21 25 21 25 19.63671875 26.375 C18.99347656 26.91125 18.35023438 27.4475 17.6875 28 C14.22982451 30.93749422 10.84755259 33.93724616 7.5 37 C6.571875 37.84175781 5.64375 38.68351562 4.6875 39.55078125 C2.98899755 41.09868974 1.30012135 42.65728735 -0.375 44.23046875 C-1.426875 45.19919922 -1.426875 45.19919922 -2.5 46.1875 C-3.1084375 46.75855469 -3.716875 47.32960937 -4.34375 47.91796875 C-4.8903125 48.27503906 -5.436875 48.63210937 -6 49 C-9.41054415 47.86315195 -10.0677494 46.93570812 -12.25 44.1875 C-16.90691533 38.69371828 -21.96688034 35.5386321 -29.2265625 34.76171875 C-37.55402822 34.50402844 -44.59733011 36.4630504 -50.875 42.125 C-55.58257363 47.33337934 -58.14714096 53.60798977 -58.4375 60.625 C-58.13032173 65.89357283 -57.3579968 70.86425117 -53.30078125 74.5390625 C-46.09004349 79.38399829 -39.23661163 80.56625376 -30.6796875 79.53515625 C-23.47575725 78.09647047 -19.25943535 74.8567236 -15 69 C-10.54818497 69.87477416 -7.88067274 72.37162157 -4.5625 75.3125 C-3.64911865 76.10805298 -3.64911865 76.10805298 -2.71728516 76.91967773 C2.18420589 81.21369743 6.98887956 85.61362481 11.73608398 90.07739258 C14.38389792 92.55953229 17.03978554 94.89668972 20 97 C18.49661325 105.28696113 10.31294927 110.66501824 3.82421875 115.1796875 C-7.41024645 122.4207121 -18.52049291 125.57184037 -31.875 125.4375 C-33.4520874 125.42722778 -33.4520874 125.42722778 -35.06103516 125.41674805 C-43.03790106 125.25207948 -49.65315505 124.27122293 -57 121 C-57.87269531 120.63777344 -58.74539062 120.27554688 -59.64453125 119.90234375 C-77.3528603 111.87783212 -90.5680388 94.60403285 -98 76.953125 C-103.8986454 59.5336878 -103.17300871 41.94573004 -95.71875 25.10546875 C-92.18412459 18.08530995 -87.53149379 12.54071295 -82 7 C-81.2884375 6.27683594 -80.576875 5.55367187 -79.84375 4.80859375 C-58.38075835 -15.68234212 -23.98421785 -16.03155614 0 0 Z " fill="#3486C4" transform="translate(170,11)"/>
<path d="M0 0 C7.26183115 5.27476292 11.90541303 11.59131541 13.54296875 20.5234375 C14.48279262 30.71691182 12.83534593 38.77376473 6.35546875 46.8359375 C0.09843183 53.5119121 -7.34698422 56.6528167 -16.39453125 56.9609375 C-25.14868748 57.02879918 -31.82897969 54.37176299 -38.61328125 48.73046875 C-44.71274175 42.46301463 -47.60324357 34.57638304 -47.89453125 25.8984375 C-47.46812425 16.22862719 -43.90953438 8.66856913 -36.86328125 2.01953125 C-26.30179403 -6.32504002 -11.41596387 -6.86046795 0 0 Z M-26.76953125 18.7734375 C-28.86596578 22.18984933 -29.38674789 24.51728601 -29.45703125 28.5234375 C-28.16042951 32.41324271 -26.81229448 34.21661926 -23.70703125 36.8984375 C-19.8462182 38.82884402 -17.72271139 39.13282038 -13.45703125 38.5234375 C-9.81252753 36.70118564 -7.86424496 35.10141825 -5.51953125 31.7734375 C-4.17313721 27.65505574 -3.85941645 24.60262657 -5.45703125 20.5234375 C-8.25562135 16.97344512 -11.26695994 14.93631938 -15.51953125 13.4609375 C-20.41564066 13.56511004 -23.31269226 15.41002659 -26.76953125 18.7734375 Z " fill="#3486C5" transform="translate(336.45703125,193.4765625)"/>
<path d="M0 0 C5.8972205 4.28973726 5.8972205 4.28973726 7.47265625 7.80859375 C7.40234375 10.41796875 7.40234375 10.41796875 5.234375 13.12890625 C4.2431116 14.03391514 3.23576021 14.92154819 2.21484375 15.79296875 C1.71919922 16.25574219 1.22355469 16.71851563 0.71289062 17.1953125 C-2.95634442 20.4428521 -2.95634442 20.4428521 -5.8125 20.33203125 C-7.59765625 19.41796875 -7.59765625 19.41796875 -9.97265625 17.41796875 C-13.04479068 15.0772949 -14.74890707 14.49651465 -18.59765625 14.41796875 C-22.41142283 15.71464939 -24.32700747 17.11956112 -27.03515625 20.10546875 C-28.75571306 23.75304919 -28.99963991 25.63452636 -28.28515625 29.51953125 C-26.91953595 33.2905055 -24.10898619 35.66230378 -20.59765625 37.41796875 C-14.90635288 37.96520946 -12.0364844 37.01130582 -7.59765625 33.41796875 C-7.10265625 32.42796875 -7.10265625 32.42796875 -6.59765625 31.41796875 C-2.88720378 32.99577798 -0.29859241 35.32500123 2.65234375 38.04296875 C3.544375 38.86023438 4.43640625 39.6775 5.35546875 40.51953125 C6.0309375 41.14601562 6.70640625 41.7725 7.40234375 42.41796875 C6.5253354 47.5046172 3.46073049 49.54871234 -0.59765625 52.41796875 C-7.80143011 57.06832574 -15.21385068 57.34314411 -23.59765625 56.41796875 C-30.81710137 54.73972085 -36.79689929 51.07219361 -41.59765625 45.41796875 C-47.02597103 36.5328167 -48.95796683 28.31775403 -47.171875 17.9453125 C-44.92271497 10.12154723 -40.15276031 3.58591326 -33.09765625 -0.51953125 C-22.12091508 -5.89665108 -10.67301601 -6.5001075 0 0 Z " fill="#3486C5" transform="translate(47.59765625,193.58203125)"/>
<path d="M0 0 C15 0 15 0 18.44140625 2.16015625 C19.14136719 3.11792969 19.84132813 4.07570312 20.5625 5.0625 C21.33464844 6.06023437 22.10679687 7.05796875 22.90234375 8.0859375 C23.59457031 9.04757813 24.28679687 10.00921875 25 11 C26.1941474 12.40798868 27.40004613 13.80622951 28.625 15.1875 C29.40875 16.115625 30.1925 17.04375 31 18 C31.33 12.06 31.66 6.12 32 0 C37.61 0 43.22 0 49 0 C49 16.17 49 32.34 49 49 C34 49 34 49 30.05078125 46.11328125 C28.61132812 44.26757812 28.61132812 44.26757812 27.3125 42.3125 C26.60577148 41.37374023 26.60577148 41.37374023 25.88476562 40.41601562 C25.0074122 39.24416595 24.14854463 38.05800373 23.31762695 36.8527832 C21.64195798 34.49653865 19.80619583 32.25774479 18 30 C17.67 36.27 17.34 42.54 17 49 C11.39 49 5.78 49 0 49 C0 32.83 0 16.66 0 0 Z " fill="#3486C5" transform="translate(352,199)"/>
<path d="M0 0 C5.61 0 11.22 0 17 0 C17.33 4.95 17.66 9.9 18 15 C18.79019531 13.9171875 19.58039063 12.834375 20.39453125 11.71875 C28.96598113 0.85271344 28.96598113 0.85271344 34.52783203 -0.71044922 C40.0852048 -1.31350302 45.48606636 -0.7935832 51 0 C48.78742017 3.44179084 46.67146181 6.56907887 43.6875 9.375 C39.88679634 13.05230419 36.43391337 16.98159073 33 21 C37.42897472 28.09849373 42.51538324 34.66381307 47.68041992 41.23413086 C48.23705322 41.94964111 48.79368652 42.66515137 49.3671875 43.40234375 C49.87362793 44.04679443 50.38006836 44.69124512 50.90185547 45.35522461 C52 47 52 47 52 49 C35.2952089 51.23385157 35.2952089 51.23385157 29.97314453 47.62597656 C26.23879756 43.90725448 23.55013184 39.58555817 21 35 C20.01 35.66 19.02 36.32 18 37 C17.41518879 39.88595946 17.41518879 39.88595946 17.3125 43.125 C17.209375 45.06375 17.10625 47.0025 17 49 C11.39 49 5.78 49 0 49 C0 32.83 0 16.66 0 0 Z " fill="#3486C5" transform="translate(177,199)"/>
<path d="M0 0 C0.79092041 -0.00644531 1.58184082 -0.01289063 2.39672852 -0.01953125 C8.17546023 0.10496136 13.06659802 1.40450715 18.4375 3.5 C17.78330901 8.56998019 15.5828591 12.91990777 13.4375 17.5 C12.89222656 17.2834375 12.34695313 17.066875 11.78515625 16.84375 C6.0780803 14.73652196 1.5112233 14.21077508 -4.5625 14.5 C-4.8925 15.16 -5.2225 15.82 -5.5625 16.5 C-4.34433594 16.79132813 -3.12617188 17.08265625 -1.87109375 17.3828125 C-0.247133 17.79584298 1.37655069 18.20996385 3 18.625 C3.79986328 18.81320313 4.59972656 19.00140625 5.42382812 19.1953125 C11.18344023 20.69986423 15.50112979 22.93461072 19.4375 27.5 C20.79432449 31.57047347 20.96222254 35.24391717 20.4375 39.5 C17.76134782 44.75318761 14.2705918 48.33417019 8.7890625 50.58984375 C4.88022194 51.65133542 1.20684776 51.84260243 -2.8125 51.8125 C-3.93422607 51.80730347 -3.93422607 51.80730347 -5.07861328 51.80200195 C-12.55420522 51.65565952 -19.11492628 50.94757372 -24.5625 45.5 C-22.5825 41.54 -20.6025 37.58 -18.5625 33.5 C-15.37239583 34.54166667 -12.18229167 35.58333333 -8.9921875 36.625 C-5.64514962 37.47891399 -2.99513946 37.81838975 0.4375 37.5 C1.0975 36.84 1.7575 36.18 2.4375 35.5 C1.88811768 35.33918945 1.33873535 35.17837891 0.77270508 35.01269531 C-1.73854042 34.27030919 -4.24413765 33.51034919 -6.75 32.75 C-7.61431641 32.49734375 -8.47863281 32.2446875 -9.36914062 31.984375 C-15.01570955 30.2536259 -19.80808847 28.59110603 -22.875 23.1875 C-24.35592086 17.39844571 -23.99821199 12.55147086 -21.04296875 7.3671875 C-15.66235811 0.58108754 -8.08626863 0.06287312 0 0 Z " fill="#3486C5" transform="translate(252.5625,197.5)"/>
<path d="M0 0 C1.12100098 0.01135986 1.12100098 0.01135986 2.26464844 0.02294922 C8.88328211 0.22032684 14.38378412 1.28097147 19.26953125 6.0390625 C20.6875 7.6875 20.6875 7.6875 22.625 10.4375 C21.22421602 11.97297475 19.80379097 13.49055148 18.375 15 C17.58609375 15.84691406 16.7971875 16.69382813 15.984375 17.56640625 C13.625 19.4375 13.625 19.4375 11.46875 19.3125 C9.625 18.4375 9.625 18.4375 7.375 16.875 C3.68844298 14.94793611 0.70167747 14.599151 -3.375 15.4375 C-6.58153576 17.14361088 -6.58153576 17.14361088 -8.375 20.4375 C-9.29556012 25.40689532 -9.15905341 29.15687944 -6.5 33.5 C-3.81258561 35.96486119 -3.81258561 35.96486119 -0.3515625 36.45703125 C4.81953722 36.03221646 4.81953722 36.03221646 9.1875 33.375 C9.661875 32.735625 10.13625 32.09625 10.625 31.4375 C13.86361303 32.88174635 16.24469163 34.69522247 18.875 37.0625 C19.58140625 37.69414062 20.2878125 38.32578125 21.015625 38.9765625 C21.54671875 39.45867187 22.0778125 39.94078125 22.625 40.4375 C20.27917071 45.49899653 17.18997081 47.62603365 12.25 50.1875 C4.63072028 52.80436837 -4.98410126 52.85768829 -12.4375 49.75 C-14.515625 48.62890625 -14.515625 48.62890625 -16.375 47.4375 C-16.94734375 47.07527344 -17.5196875 46.71304688 -18.109375 46.33984375 C-23.24602697 42.58907066 -25.42621748 37.28384757 -27.375 31.4375 C-28.14926625 23.80907354 -27.40542477 17.06455698 -23.375 10.4375 C-17.01933739 3.11676932 -9.61048053 -0.1361809 0 0 Z " fill="#3486C5" transform="translate(151.375,197.5625)"/>
<path d="M0 0 C6.38842196 4.98871153 11.85859148 10.75199693 17 17 C16.67 17.66 16.34 18.32 16 19 C15.48953125 18.43152344 14.9790625 17.86304687 14.453125 17.27734375 C2.53960625 4.62451089 -12.40828362 -1.98938318 -29.66772461 -2.54077148 C-39.39459272 -2.61076027 -48.03565826 -2.04719226 -57 2 C-57.94746094 2.42410156 -58.89492187 2.84820312 -59.87109375 3.28515625 C-66.91131438 6.79061978 -72.45311306 11.47214183 -78 17 C-78.63808594 17.61488281 -79.27617188 18.22976562 -79.93359375 18.86328125 C-92.11260565 31.53053862 -95.53186292 48.3143675 -95.2890625 65.265625 C-94.96604939 73.27243486 -92.9760902 81.16593074 -89.30078125 88.296875 C-88.87152344 89.18890625 -88.44226563 90.0809375 -88 91 C-88.495 91.99 -88.495 91.99 -89 93 C-100.03165314 75.38612716 -104.61160349 58.03410925 -100.2421875 37.42578125 C-96.81150941 25.24543258 -90.89671963 15.91154749 -82 7 C-81.2884375 6.27683594 -80.576875 5.55367187 -79.84375 4.80859375 C-58.38075835 -15.68234212 -23.98421785 -16.03155614 0 0 Z " fill="#EFA246" transform="translate(170,11)"/>
<path d="M0 0 C5.53957986 4.3846282 10.94229511 9.18577185 15 15 C14.67 15.66 14.34 16.32 14 17 C13.30390625 16.27296875 13.30390625 16.27296875 12.59375 15.53125 C7.85824932 10.93710755 2.97947635 7.6341975 -2.875 4.6875 C-3.50986328 4.36265625 -4.14472656 4.0378125 -4.79882812 3.703125 C-14.24302763 -0.87185406 -23.4907252 -2.54301452 -33.9375 -2.4375 C-34.99219482 -2.42992676 -36.04688965 -2.42235352 -37.13354492 -2.41455078 C-44.70277718 -2.25408891 -51.15523317 -1.41707739 -58 2 C-58.92425781 2.43570312 -59.84851563 2.87140625 -60.80078125 3.3203125 C-77.51754697 11.78274162 -87.74770601 24.51477106 -94 42 C-94.26683594 42.74378906 -94.53367188 43.48757812 -94.80859375 44.25390625 C-99.2318782 59.84217077 -95.03974905 76.19857486 -90 91 C-97.73835214 84.15984945 -101.47534029 71.62161916 -102.1640625 61.61669922 C-102.98148026 43.33719453 -100.44449903 26.40995534 -88.03735352 12.10400391 C-65.00198615 -13.03779549 -29.00299126 -19.62284167 0 0 Z " fill="#F0A246" transform="translate(301,13)"/>
<path d="M0 0 C5.94 0 11.88 0 18 0 C18 11.55 18 23.1 18 35 C25.26 35 32.52 35 40 35 C40 39.62 40 44.24 40 49 C26.8 49 13.6 49 0 49 C0 32.83 0 16.66 0 0 Z " fill="#3486C5" transform="translate(59,199)"/>
<path d="M0 0 C5.61 0 11.22 0 17 0 C17 16.17 17 32.34 17 49 C11.39 49 5.78 49 0 49 C0 32.83 0 16.66 0 0 Z " fill="#3486C5" transform="translate(102,199)"/>
<path d="M0 0 C0.66 0 1.32 0 2 0 C7.29416999 8.03579373 8.25671787 15.50820405 7 25 C4.60992913 33.01252835 -0.03743021 38.28543191 -7.28515625 42.25 C-14.59774465 45.58759978 -21.45803648 46.54212888 -29.15234375 43.9296875 C-35.91040026 40.87227257 -40.27542928 37.43631958 -44 31 C-43.67 30.34 -43.34 29.68 -43 29 C-41.6328125 30.23697917 -40.265625 31.47395833 -38.8984375 32.7109375 C-32.67989437 36.93340506 -25.20343576 36.8126085 -18 36 C-10.2627567 33.62908003 -4.89069695 29.17687553 -0.97265625 22.16015625 C2.14689085 15.13039343 1.64563724 7.3655538 0 0 Z " fill="#EFA246" transform="translate(288,56)"/>
<path d="M0 0 C2.96175123 0.61277612 4.38058783 1.25372522 7 3 C6.08288023 7.80697259 3.54312327 10.73059441 0 14 C-7.68415135 18.84246519 -14.99421474 19.88312147 -24 19 C-31.58120004 16.76223888 -36.34167115 12.21624677 -41 6 C-40.67 5.34 -40.34 4.68 -40 4 C-39.27296875 4.50660156 -39.27296875 4.50660156 -38.53125 5.0234375 C-30.12576409 10.61631851 -22.99906117 11.99689706 -13 10 C-7.04779662 8.0529233 -3.64473853 5.01151548 0 0 Z " fill="#EFA246" transform="translate(155,80)"/>
</svg>
