<svg width="154" height="55" viewBox="0 0 154 55" fill="none" xmlns="http://www.w3.org/2000/svg">
<path d="M83.872 43.0314H63.9731V11.4964H81.4793C84.629 11.4964 87.1705 14.0555 87.184 17.2104C87.184 20.3652 84.629 22.9108 81.4793 22.9108H73.4089V31.8066H75.1257V31.8608H83.872C86.9542 31.8608 89.4551 34.3657 89.4415 37.4529C89.4415 40.5265 86.9542 43.0314 83.872 43.0314ZM92.9428 26.1875C94.957 23.6284 96.052 20.46 96.052 17.1968C96.0384 9.14046 89.5227 2.60058 81.4658 2.58704H55.0781V51.9273H83.872C91.8478 51.9408 98.323 45.4686 98.3366 37.4664C98.3366 33.0929 96.3629 28.9361 92.9428 26.1875Z" fill="white"/>
<path d="M1.78418 52.4848H10.6927C10.936 44.293 14.9915 36.697 21.656 31.9715L18.2765 23.5225C8.25943 29.7509 2.05454 40.6507 1.78418 52.4848Z" fill="#3880FF"/>
<path d="M19.3467 2.79346L39.57 51.8493H49.1815L28.9582 2.79346H19.3467Z" fill="white"/>
<path d="M143.114 31.3725C141.113 37.9124 135.098 42.3806 128.271 42.3942C119.7 42.3806 112.766 35.4345 112.752 26.8501C112.766 18.2656 119.7 11.3196 128.271 11.306C135.165 11.3196 141.222 15.869 143.155 22.4902H152.266C150.157 10.8727 140.059 2.4237 128.271 2.41016C114.807 2.4237 103.884 13.3641 103.871 26.8501C103.884 40.3361 114.807 51.2765 128.271 51.29C139.991 51.2765 150.049 42.9087 152.239 31.3725H143.114Z" fill="white"/>
<path d="M121.452 19.1744H130.658C131.064 19.1744 131.429 19.3775 131.645 19.716L135.985 26.5538C136.066 26.6892 136.066 26.8517 135.985 26.9871L131.632 34.2446C131.415 34.5966 131.037 34.8133 130.631 34.8133H121.425C121.196 34.8133 121.006 34.6237 121.006 34.3935C121.006 34.3123 121.033 34.2311 121.074 34.1769L125.616 27.0006C125.697 26.8652 125.697 26.6892 125.616 26.5538L121.101 19.8244C120.979 19.6348 121.02 19.3775 121.209 19.2421C121.29 19.2015 121.371 19.1744 121.452 19.1744Z" fill="#3880FF"/>
</svg>
