<svg width="172" height="37" viewBox="0 0 172 37" fill="none" xmlns="http://www.w3.org/2000/svg">
<g clip-path="url(#clip0_4_159)">
<path d="M96.7094 2.47229C98.6102 3.33625 100.322 4.5325 101.778 5.98351L95.6534 12.0312C94.0639 10.4694 91.8629 9.49472 89.4508 9.49472C84.5488 9.49472 80.5805 13.449 80.5805 18.3226C80.5805 23.1962 84.5488 27.1394 89.4508 27.1394C91.8629 27.1394 94.0527 26.1758 95.6423 24.614L101.745 30.6949C100.289 32.1238 98.588 33.309 96.7094 34.1729H105.191V2.47229H96.7094ZM71.9435 18.3226C71.9435 11.278 76.1008 5.21924 82.1478 2.47229H68.8534V34.1729H82.1811C76.1453 31.4149 71.9435 25.3561 71.9435 18.3226ZM46.1105 34.1729H60.5388L46.1105 16.9713V34.1729ZM59.7829 2.47229H45.2769L59.7829 19.7625V2.47229ZM33.6498 5.98351L27.5361 12.0312C25.9244 10.4694 23.7346 9.49472 21.3113 9.49472C16.4093 9.49472 12.4521 13.449 12.4521 18.3226C12.4521 23.1962 16.4093 27.1394 21.3113 27.1394C23.7346 27.1394 25.9132 26.1758 27.525 24.614L33.6053 30.6949C32.1603 32.1238 30.4596 33.309 28.581 34.1729H37.0512V2.47229H28.581C30.4818 3.33625 32.1936 4.5325 33.6498 5.98351ZM3.81516 18.3226C3.81516 11.278 7.97245 5.21924 14.0083 2.47229H0.713867V34.1729H14.0416C8.00579 31.4149 3.81516 25.3561 3.81516 18.3226Z" fill="white"/>
<path d="M113.283 6.39374C112.96 6.79249 112.416 7.10263 111.727 7.10263C111.037 7.10263 110.459 6.78141 110.137 6.39374C109.804 5.96176 109.648 5.39686 109.648 4.73228C109.648 4.07877 109.804 3.51388 110.137 3.0819C110.459 2.69422 111.037 2.37301 111.727 2.37301C112.416 2.37301 112.96 2.69422 113.283 3.0819C113.483 3.35881 113.616 3.71325 113.639 4.0677H112.56C112.56 3.90155 112.494 3.75756 112.427 3.64679C112.293 3.44742 112.049 3.3145 111.727 3.3145C111.426 3.3145 111.215 3.43634 111.06 3.59141C110.804 3.8794 110.76 4.31138 110.76 4.73228C110.76 5.16426 110.804 5.58516 111.06 5.88422C111.215 6.03929 111.426 6.16113 111.727 6.16113C112.049 6.16113 112.293 6.02822 112.427 5.82884C112.494 5.71808 112.56 5.57409 112.56 5.40794H113.639C113.616 5.77346 113.483 6.11683 113.283 6.39374ZM117.073 3.5028C116.929 3.34773 116.695 3.23697 116.384 3.23697C116.051 3.23697 115.773 3.38096 115.628 3.59141C115.473 3.79079 115.395 4.00124 115.384 4.3003H117.362C117.351 3.95693 117.24 3.6911 117.073 3.5028ZM118.441 5.08672H115.395C115.384 5.43009 115.506 5.77346 115.728 5.97284C115.873 6.11683 116.106 6.26082 116.406 6.26082C116.718 6.26082 116.907 6.19436 117.062 6.02822C117.162 5.93961 117.24 5.81777 117.273 5.6627H118.34C118.307 5.91745 118.118 6.28297 117.951 6.48235C117.562 6.93648 116.995 7.1137 116.417 7.1137C115.795 7.1137 115.339 6.90325 114.984 6.55988C114.539 6.13898 114.283 5.49655 114.283 4.76551C114.283 4.03447 114.506 3.39204 114.95 2.94898C115.284 2.59454 115.773 2.37301 116.395 2.37301C117.062 2.37301 117.674 2.63884 118.051 3.20374C118.385 3.70218 118.463 4.21169 118.441 4.78766C118.441 4.78766 118.441 4.98704 118.441 5.08672ZM122.242 7.01402V4.23384C122.242 3.70218 122.075 3.38096 121.497 3.38096C121.108 3.38096 120.853 3.62464 120.708 3.94586C120.552 4.31138 120.564 4.77659 120.564 5.16426V7.01402H119.463V2.48377H120.375L120.464 3.05974C120.73 2.59454 121.275 2.37301 121.797 2.37301C122.765 2.37301 123.343 3.04867 123.343 3.99016V7.01402H122.242ZM126.255 7.0694C125.343 7.0694 124.899 6.54881 124.899 5.67377V3.38096H124.054V2.48377H124.899V1.33183L125.988 1.06599V2.48377H127.122V3.38096H125.988V5.58516C125.988 5.92853 126.133 6.07252 126.488 6.07252C126.711 6.07252 126.9 6.07252 127.189 6.03929V6.94756C126.888 7.02509 126.577 7.0694 126.255 7.0694ZM130.39 3.44742C129.612 3.44742 129.223 3.99016 129.223 4.73228V7.01402H128.111V2.48377H129.045L129.145 3.17051C129.356 2.64992 129.89 2.41731 130.423 2.41731C130.534 2.41731 130.657 2.42839 130.768 2.45054V3.49172C130.646 3.46957 130.512 3.44742 130.39 3.44742ZM133.958 3.5028C133.802 3.34773 133.58 3.23697 133.258 3.23697C132.935 3.23697 132.658 3.38096 132.502 3.59141C132.346 3.79079 132.28 4.00124 132.268 4.3003H134.236C134.225 3.95693 134.125 3.6911 133.958 3.5028ZM135.325 5.08672H132.28C132.268 5.43009 132.391 5.77346 132.613 5.97284C132.769 6.11683 132.991 6.26082 133.28 6.26082C133.602 6.26082 133.78 6.19436 133.947 6.02822C134.047 5.93961 134.125 5.81777 134.158 5.6627H135.214C135.181 5.91745 135.003 6.28297 134.836 6.48235C134.447 6.93648 133.88 7.1137 133.302 7.1137C132.68 7.1137 132.224 6.90325 131.868 6.55988C131.424 6.13898 131.168 5.49655 131.168 4.76551C131.168 4.03447 131.379 3.39204 131.824 2.94898C132.168 2.59454 132.658 2.37301 133.269 2.37301C133.947 2.37301 134.558 2.63884 134.936 3.20374C135.27 3.70218 135.348 4.21169 135.336 4.78766C135.336 4.78766 135.325 4.98704 135.325 5.08672ZM140.861 7.01402V4.23384C140.861 3.70218 140.694 3.38096 140.116 3.38096C139.727 3.38096 139.471 3.62464 139.327 3.94586C139.171 4.31138 139.182 4.77659 139.182 5.16426V7.01402H138.093V2.48377H138.994L139.071 3.05974C139.349 2.59454 139.894 2.37301 140.416 2.37301C141.383 2.37301 141.95 3.04867 141.95 3.99016V7.01402H140.861ZM145.741 4.99811L144.596 5.08672C144.251 5.10888 143.94 5.31933 143.94 5.68485C143.94 6.02822 144.24 6.24975 144.585 6.24975C145.263 6.24975 145.741 5.88422 145.741 5.20856V4.99811ZM146.663 7.09155C146.185 7.09155 145.93 6.78141 145.896 6.43804C145.685 6.81464 145.163 7.12478 144.518 7.12478C143.44 7.12478 142.862 6.43804 142.862 5.707C142.862 4.84304 143.54 4.34461 144.407 4.28922L145.741 4.18954V3.91263C145.741 3.48065 145.596 3.19266 144.974 3.19266C144.474 3.19266 144.173 3.42526 144.151 3.84617H143.095C143.151 2.82714 143.962 2.37301 144.974 2.37301C145.763 2.37301 146.419 2.61669 146.674 3.30342C146.797 3.58033 146.819 3.90155 146.819 4.20061V5.88422C146.819 6.09468 146.886 6.18329 147.064 6.18329C147.13 6.18329 147.208 6.16113 147.208 6.16113V6.95863C147.019 7.04725 146.93 7.09155 146.663 7.09155ZM149.742 7.0694C148.82 7.0694 148.364 6.54881 148.364 5.67377V3.38096H147.542V2.48377H148.364V1.33183L149.465 1.06599V2.48377H150.609V3.38096H149.465V5.58516C149.465 5.92853 149.62 6.07252 149.976 6.07252C150.198 6.07252 150.387 6.07252 150.676 6.03929V6.94756C150.376 7.02509 150.065 7.0694 149.742 7.0694ZM151.621 2.48377H152.724V7.00859H151.621V2.48377ZM151.588 0.733702H152.759V1.85596H151.588V0.733702ZM156.601 3.60249C156.456 3.44742 156.201 3.32558 155.912 3.32558C155.612 3.32558 155.367 3.44742 155.222 3.60249C154.967 3.89047 154.889 4.32245 154.889 4.75443C154.889 5.17533 154.967 5.60731 155.222 5.88422C155.367 6.05037 155.612 6.18329 155.912 6.18329C156.201 6.18329 156.456 6.05037 156.601 5.88422C156.868 5.60731 156.923 5.17533 156.923 4.75443C156.923 4.32245 156.868 3.89047 156.601 3.60249ZM157.501 6.41589C157.179 6.80356 156.601 7.12478 155.912 7.12478C155.222 7.12478 154.633 6.80356 154.322 6.41589C153.989 5.99499 153.789 5.50763 153.789 4.75443C153.789 3.97908 153.989 3.5028 154.322 3.07082C154.633 2.69422 155.222 2.37301 155.912 2.37301C156.601 2.37301 157.179 2.69422 157.501 3.07082C157.846 3.5028 158.035 3.97908 158.035 4.75443C158.035 5.50763 157.846 5.99499 157.501 6.41589ZM161.859 7.01402V4.23384C161.859 3.70218 161.692 3.38096 161.103 3.38096C160.725 3.38096 160.469 3.62464 160.325 3.94586C160.169 4.31138 160.18 4.77659 160.18 5.16426V7.01402H159.08V2.48377H159.991L160.069 3.05974C160.347 2.59454 160.892 2.37301 161.414 2.37301C162.381 2.37301 162.948 3.04867 162.948 3.99016V7.01402H161.859ZM166.738 4.99811L165.593 5.08672C165.249 5.10888 164.927 5.31933 164.927 5.68485C164.927 6.02822 165.238 6.24975 165.582 6.24975C166.26 6.24975 166.738 5.88422 166.738 5.20856V4.99811ZM167.661 7.09155C167.183 7.09155 166.927 6.78141 166.894 6.43804C166.683 6.81464 166.16 7.12478 165.516 7.12478C164.437 7.12478 163.859 6.43804 163.859 5.707C163.859 4.84304 164.549 4.34461 165.405 4.28922L166.738 4.18954V3.91263C166.738 3.48065 166.594 3.19266 165.971 3.19266C165.471 3.19266 165.171 3.42526 165.149 3.84617H164.093C164.148 2.82714 164.949 2.37301 165.971 2.37301C166.75 2.37301 167.416 2.61669 167.672 3.30342C167.783 3.58033 167.806 3.90155 167.806 4.20061V5.88422C167.806 6.09468 167.883 6.18329 168.061 6.18329C168.128 6.18329 168.195 6.16113 168.195 6.16113V6.95863C168.017 7.04725 167.928 7.09155 167.661 7.09155ZM170.362 7.05832C169.628 7.05832 169.128 6.71495 169.128 5.851V0.71155H170.229V5.6627C170.229 5.91745 170.284 6.09468 170.662 6.09468C170.762 6.09468 170.785 6.0836 170.84 6.0836V7.00294C170.629 7.03617 170.584 7.05832 170.362 7.05832ZM111.782 16.8609C111.438 16.8609 111.204 17.016 111.049 17.2154C110.815 17.5144 110.76 17.9243 110.76 18.3119C110.76 18.7107 110.815 19.1205 111.049 19.4196C111.204 19.6079 111.438 19.774 111.782 19.774C112.638 19.774 112.816 18.9654 112.816 18.3119C112.816 17.6584 112.638 16.8609 111.782 16.8609ZM112.905 20.5937L112.838 20.0952C112.56 20.5051 112.06 20.6934 111.56 20.6934C111.104 20.6934 110.737 20.5272 110.448 20.3057C109.915 19.8626 109.648 19.187 109.648 18.3341C109.648 17.4369 109.915 16.7612 110.459 16.3182C110.748 16.0856 111.104 15.9416 111.571 15.9416C112.138 15.9416 112.56 16.1299 112.76 16.3736V14.2912H113.85V20.5937" fill="white"/>
<path d="M117.874 20.5821L117.796 19.9951C117.574 20.4381 117.063 20.6929 116.496 20.6929C115.517 20.6929 114.917 20.0394 114.917 19.0757V16.0519H116.007V18.832C116.007 19.3526 116.229 19.696 116.807 19.696C117.051 19.696 117.229 19.5963 117.363 19.4745C117.618 19.2197 117.696 18.8099 117.696 18.4444V16.0519H118.785V20.5821H117.874ZM124.832 19.9618C124.51 20.3606 123.965 20.6818 123.265 20.6818C122.587 20.6818 122.009 20.3495 121.687 19.9618C121.342 19.5298 121.198 18.9649 121.198 18.3114C121.198 17.6469 121.342 17.082 121.687 16.65C122.009 16.2623 122.587 15.9411 123.265 15.9411C123.965 15.9411 124.51 16.2623 124.832 16.65C125.033 16.9269 125.155 17.2813 125.177 17.6358H124.099C124.099 17.4696 124.043 17.3367 123.977 17.2149C123.832 17.0155 123.599 16.8826 123.265 16.8826C122.976 16.8826 122.754 17.0044 122.609 17.1595C122.342 17.4475 122.298 17.8795 122.298 18.3114C122.298 18.7434 122.342 19.1643 122.609 19.4523C122.754 19.6074 122.976 19.7403 123.265 19.7403C123.599 19.7403 123.832 19.5963 123.977 19.3969C124.043 19.2862 124.099 19.1422 124.099 18.976H125.177C125.155 19.3415 125.033 19.696 124.832 19.9618ZM126.166 16.0519H127.27V20.577H126.166V16.0519ZM126.122 14.3018H127.293V15.425H126.122V14.3018ZM131.424 20.5821V17.8019C131.424 17.2703 131.246 16.949 130.668 16.949C130.279 16.949 130.035 17.1927 129.89 17.525C129.723 17.8795 129.734 18.3447 129.734 18.7323V20.5821H128.645V16.0519H129.557L129.634 16.6389C129.901 16.1626 130.457 15.9411 130.979 15.9411C131.946 15.9411 132.513 16.6278 132.513 17.5693V20.5821H131.424ZM134.948 15.6531L134.592 15.0882L136.215 13.8809L136.704 14.6784L134.948 15.6531ZM136.282 17.0709C136.137 16.9158 135.904 16.8051 135.592 16.8051C135.259 16.8051 134.981 16.949 134.825 17.1595C134.67 17.3589 134.592 17.5693 134.581 17.8684H136.548C136.548 17.525 136.448 17.2592 136.282 17.0709ZM137.649 18.6548H134.592C134.581 19.0093 134.714 19.3415 134.926 19.5409C135.081 19.6849 135.303 19.8289 135.604 19.8289C135.915 19.8289 136.115 19.7624 136.271 19.6074C136.359 19.5077 136.437 19.3859 136.482 19.2308H137.527C137.504 19.4966 137.327 19.8511 137.149 20.0615C136.771 20.5046 136.204 20.7039 135.615 20.7039C135.003 20.7039 134.548 20.4713 134.192 20.128C133.736 19.7071 133.492 19.0646 133.492 18.3336C133.492 17.6026 133.714 16.9601 134.147 16.5171C134.481 16.1626 134.97 15.9411 135.592 15.9411C136.271 15.9411 136.882 16.2069 137.26 16.7718C137.593 17.2813 137.671 17.7798 137.649 18.3557C137.649 18.3557 137.649 18.5551 137.649 18.6548ZM144.029 20.5821V17.7687C144.029 17.2149 143.874 16.8826 143.329 16.8826C142.707 16.8826 142.429 17.5472 142.429 18.1121V20.5821H141.35V17.7687C141.35 17.2149 141.206 16.8826 140.661 16.8826C140.028 16.8826 139.761 17.5472 139.761 18.1121V20.5821H138.66V16.0519H139.572L139.672 16.6611C139.916 16.2402 140.35 15.9411 140.95 15.9411C141.606 15.9411 142.028 16.218 142.262 16.6832C142.54 16.2069 143.029 15.9411 143.629 15.9411C144.607 15.9411 145.108 16.5835 145.108 17.525V20.5821H144.029ZM148.898 18.5662L147.753 18.6659C147.408 18.688 147.086 18.8874 147.086 19.2529C147.086 19.5963 147.397 19.8178 147.731 19.8178C148.42 19.8178 148.898 19.4523 148.898 18.7766V18.5662ZM149.821 20.6596C149.343 20.6596 149.076 20.3495 149.043 20.0172C148.842 20.3827 148.32 20.6929 147.664 20.6929C146.586 20.6929 146.019 20.0172 146.019 19.2751C146.019 18.4111 146.697 17.9127 147.564 17.8573L148.898 17.7687V17.4807C148.898 17.0487 148.753 16.7718 148.12 16.7718C147.62 16.7718 147.331 16.9934 147.308 17.4143H146.241C146.297 16.3952 147.108 15.9411 148.12 15.9411C148.909 15.9411 149.565 16.1848 149.832 16.8715C149.943 17.1484 149.965 17.4696 149.965 17.7798V19.4523C149.965 19.6738 150.032 19.7514 150.221 19.7514C150.287 19.7514 150.354 19.7292 150.354 19.7292V20.5378C150.176 20.6153 150.076 20.6596 149.821 20.6596ZM155.356 17.0709C155.212 16.9158 154.989 16.8161 154.667 16.8161C154.334 16.8161 154.067 16.949 153.911 17.1595C153.756 17.3589 153.689 17.5693 153.678 17.8684H155.645C155.634 17.525 155.534 17.2703 155.356 17.0709ZM156.723 18.6548H153.689C153.678 18.9982 153.789 19.3415 154.022 19.5409C154.178 19.696 154.389 19.8289 154.689 19.8289C155.001 19.8289 155.19 19.7624 155.345 19.5963C155.445 19.5077 155.534 19.3859 155.567 19.2308H156.623C156.59 19.4855 156.401 19.8511 156.234 20.0504C155.845 20.5046 155.278 20.6929 154.7 20.6929C154.089 20.6929 153.633 20.4713 153.266 20.139C152.811 19.7071 152.577 19.0646 152.577 18.3336C152.577 17.6026 152.789 16.9601 153.233 16.5171C153.578 16.1626 154.067 15.9411 154.678 15.9411C155.345 15.9411 155.968 16.2069 156.334 16.7718C156.668 17.2813 156.746 17.7909 156.723 18.3557C156.723 18.3557 156.723 18.5551 156.723 18.6548ZM159.124 20.6486C158.202 20.6486 157.746 20.1169 157.746 19.2529V16.949H156.912V16.0519H157.746V14.911L158.835 14.6341V16.0519H159.992V16.949H158.835V19.1532C158.835 19.4966 158.991 19.6406 159.347 19.6406C159.58 19.6406 159.758 19.6406 160.058 19.6074V20.5156C159.747 20.5932 159.447 20.6486 159.124 20.6486ZM164.16 16.8604C163.815 16.8604 163.582 17.0155 163.426 17.2038C163.204 17.5139 163.137 17.9238 163.137 18.3004C163.137 18.6991 163.204 19.12 163.426 19.4191C163.582 19.6074 163.815 19.7735 164.16 19.7735C165.016 19.7735 165.194 18.9649 165.194 18.3004C165.194 17.6579 165.016 16.8604 164.16 16.8604ZM165.294 20.5821L165.216 20.0837C164.949 20.5046 164.449 20.6818 163.949 20.6818C163.493 20.6818 163.115 20.5267 162.826 20.3052C162.292 19.8621 162.037 19.1754 162.037 18.3336C162.037 17.4364 162.292 16.7497 162.837 16.3066C163.126 16.0851 163.493 15.9411 163.96 15.9411C164.527 15.9411 164.949 16.1294 165.138 16.3731V14.2907H166.227V20.5821H165.294ZM169.851 17.0709C169.696 16.9158 169.473 16.8161 169.151 16.8161C168.829 16.8161 168.551 16.949 168.406 17.1595C168.239 17.3589 168.173 17.5693 168.162 17.8684H170.129C170.118 17.525 170.018 17.2703 169.851 17.0709ZM171.218 18.6548H168.173C168.162 18.9982 168.284 19.3415 168.506 19.5409C168.662 19.696 168.884 19.8289 169.173 19.8289C169.484 19.8289 169.673 19.7624 169.84 19.5963C169.94 19.5077 170.018 19.3859 170.051 19.2308H171.107C171.074 19.4855 170.896 19.8511 170.729 20.0504C170.34 20.5046 169.773 20.6929 169.184 20.6929C168.573 20.6929 168.117 20.4713 167.75 20.139C167.306 19.7071 167.061 19.0646 167.061 18.3336C167.061 17.6026 167.272 16.9601 167.717 16.5171C168.062 16.1626 168.551 15.9411 169.162 15.9411C169.84 15.9411 170.451 16.2069 170.829 16.7718C171.152 17.2813 171.241 17.7909 171.23 18.3557C171.23 18.3557 171.218 18.5551 171.218 18.6548ZM111.438 34.2061C110.704 34.2061 110.204 33.8516 110.204 32.9987V27.8593H111.305V32.7994C111.305 33.0652 111.36 33.2424 111.738 33.2424C111.838 33.2424 111.86 33.2313 111.916 33.2313V34.1507C111.705 34.1839 111.66 34.2061 111.438 34.2061Z" fill="white"/>
<path d="M112.983 30.6616L112.694 30.1632C113.149 29.9306 113.272 29.7091 113.272 29.266H112.627V27.9812H113.905V29.1774C113.905 29.8752 113.716 30.3515 112.983 30.6616ZM115.35 29.6315H116.454V34.1554H115.35V29.6315ZM115.317 27.8925H116.488V29.0155H115.317V27.8925ZM123.187 34.1618V31.3484C123.187 30.7946 123.042 30.4623 122.487 30.4623C121.864 30.4623 121.597 31.1269 121.597 31.6917V34.1618H120.508V31.3484C120.508 30.7946 120.364 30.4623 119.819 30.4623C119.196 30.4623 118.918 31.1269 118.918 31.6917V34.1618H117.829V29.6426H118.741L118.83 30.2407C119.074 29.8198 119.508 29.5208 120.119 29.5208C120.764 29.5208 121.197 29.7977 121.42 30.2629C121.697 29.7866 122.186 29.5208 122.787 29.5208C123.765 29.5208 124.265 30.1743 124.265 31.1047V34.1618H123.187ZM128.056 32.1459L126.911 32.2456C126.566 32.2677 126.255 32.4671 126.255 32.8326C126.255 33.1871 126.555 33.3975 126.9 33.3975C127.578 33.3975 128.056 33.032 128.056 32.3563V32.1459ZM128.978 34.2393C128.5 34.2393 128.245 33.9292 128.211 33.5858C128 33.9624 127.478 34.2725 126.833 34.2725C125.744 34.2725 125.177 33.5858 125.177 32.8548C125.177 31.9908 125.855 31.4924 126.733 31.437L128.056 31.3484V31.0604C128.056 30.6284 127.911 30.3515 127.289 30.3515C126.788 30.3515 126.488 30.573 126.455 30.9939H125.41C125.466 29.9749 126.277 29.5208 127.289 29.5208C128.067 29.5208 128.734 29.7755 128.989 30.4512C129.112 30.7392 129.134 31.0493 129.134 31.3595V33.032C129.134 33.2535 129.201 33.3311 129.378 33.3311C129.445 33.3311 129.512 33.3089 129.512 33.3089V34.1175C129.334 34.195 129.245 34.2393 128.978 34.2393ZM132.157 30.3404C131.657 30.3404 131.346 30.6949 131.346 31.1822C131.346 31.6696 131.657 32.024 132.157 32.024C132.658 32.024 132.958 31.6696 132.958 31.1822C132.958 30.6949 132.658 30.3404 132.157 30.3404ZM132.357 34.2282H131.49C131.268 34.2947 131.09 34.5052 131.09 34.7821C131.09 35.358 131.802 35.4245 132.235 35.4245C132.669 35.4245 133.436 35.3913 133.436 34.7821C133.436 34.2282 132.769 34.2282 132.357 34.2282ZM132.28 36.2885C131.724 36.2885 131.146 36.2331 130.668 35.9119C130.323 35.6571 130.123 35.347 130.123 34.915C130.123 34.5273 130.312 34.1618 130.668 33.9956C130.368 33.8295 130.212 33.5083 130.212 33.2092C130.212 32.8326 130.379 32.5336 130.746 32.301C130.468 32.024 130.29 31.6474 130.29 31.1822C130.29 30.1078 131.135 29.5208 132.157 29.5208C132.535 29.5208 132.88 29.6315 133.191 29.7977C133.38 29.41 133.725 29.2328 134.114 29.2328C134.18 29.2328 134.336 29.2328 134.403 29.2549V30.0857C134.38 30.0857 134.347 30.0857 134.314 30.0857C134.069 30.0857 133.836 30.1632 133.769 30.3737C133.914 30.6284 134.014 30.8832 134.014 31.1933C134.014 32.2345 133.135 32.8326 132.157 32.8326C131.902 32.8326 131.646 32.7883 131.424 32.7219C131.313 32.7772 131.201 32.888 131.201 33.0431C131.201 33.3089 131.457 33.3643 131.69 33.3643H132.435C132.891 33.3643 133.502 33.3754 133.914 33.6744C134.314 33.9513 134.48 34.3279 134.48 34.7599C134.48 35.9562 133.291 36.2885 132.28 36.2885ZM137.671 30.6506C137.515 30.4955 137.293 30.3958 136.97 30.3958C136.648 30.3958 136.37 30.5287 136.226 30.7503C136.059 30.9386 135.992 31.149 135.981 31.4481H137.949C137.937 31.1047 137.837 30.8499 137.671 30.6506ZM139.027 32.2456H135.992C135.981 32.5779 136.103 32.9212 136.326 33.1317C136.481 33.2757 136.704 33.4086 136.993 33.4086C137.315 33.4086 137.493 33.3421 137.66 33.1871C137.76 33.0874 137.837 32.9655 137.871 32.8105H138.927C138.893 33.0652 138.716 33.4307 138.538 33.6301C138.16 34.0842 137.582 34.2725 137.004 34.2725C136.392 34.2725 135.937 34.051 135.57 33.7187C135.125 33.2867 134.881 32.6554 134.881 31.9133C134.881 31.1822 135.092 30.5398 135.536 30.0967C135.881 29.7423 136.37 29.5208 136.982 29.5208C137.66 29.5208 138.271 29.7977 138.649 30.3626C138.971 30.861 139.06 31.3705 139.049 31.9354C139.049 31.9354 139.027 32.1348 139.027 32.2456ZM144.774 32.1459L143.629 32.2456C143.284 32.2677 142.962 32.4671 142.962 32.8326C142.962 33.1871 143.273 33.3975 143.618 33.3975C144.296 33.3975 144.774 33.032 144.774 32.3563V32.1459ZM145.696 34.2393C145.218 34.2393 144.963 33.9292 144.918 33.5858C144.718 33.9624 144.196 34.2725 143.551 34.2725C142.45 34.2725 141.895 33.5858 141.895 32.8548C141.895 31.9908 142.584 31.4924 143.429 31.437L144.774 31.3484V31.0604C144.774 30.6284 144.629 30.3515 143.996 30.3515C143.506 30.3515 143.206 30.573 143.173 30.9939H142.128C142.184 29.9749 142.984 29.5208 143.996 29.5208C144.785 29.5208 145.452 29.7755 145.707 30.4512C145.819 30.7392 145.841 31.0493 145.841 31.3595V33.032C145.841 33.2535 145.919 33.3311 146.096 33.3311C146.163 33.3311 146.23 33.3089 146.23 33.3089V34.1175C146.052 34.195 145.963 34.2393 145.696 34.2393ZM149.965 34.1618V31.3816C149.965 30.8499 149.798 30.5398 149.209 30.5398C148.82 30.5398 148.575 30.7724 148.431 31.1047C148.264 31.4702 148.275 31.9354 148.275 32.312V34.1618H147.186V29.6426H148.097L148.175 30.2186C148.453 29.7423 148.998 29.5208 149.52 29.5208C150.487 29.5208 151.054 30.2075 151.054 31.149V34.1618H149.965ZM152.366 29.6315H153.47V34.1554H152.366V29.6315ZM152.332 27.8925H153.505V29.0155H152.332V27.8925ZM160.202 34.1618V31.3484C160.202 30.7946 160.047 30.4623 159.502 30.4623C158.88 30.4623 158.602 31.1269 158.602 31.6917V34.1618H157.523V31.3484C157.523 30.7946 157.379 30.4623 156.834 30.4623C156.201 30.4623 155.934 31.1269 155.934 31.6917V34.1618H154.845V29.6426H155.756L155.845 30.2407C156.09 29.8198 156.523 29.5208 157.134 29.5208C157.779 29.5208 158.213 29.7977 158.435 30.2629C158.713 29.7866 159.202 29.5208 159.802 29.5208C160.78 29.5208 161.281 30.1743 161.281 31.1047V34.1618H160.202ZM163.715 29.2328L163.37 28.6679L164.982 27.4716L165.471 28.2581L163.715 29.2328ZM165.049 30.6506C164.904 30.4955 164.671 30.3958 164.36 30.3958C164.026 30.3958 163.748 30.5287 163.593 30.7392C163.437 30.9386 163.37 31.149 163.37 31.4481H165.327C165.327 31.1047 165.216 30.8499 165.049 30.6506ZM166.416 32.2345H163.37C163.37 32.5889 163.481 32.9212 163.693 33.1206C163.859 33.2757 164.082 33.4086 164.382 33.4086C164.682 33.4086 164.882 33.3421 165.038 33.1981C165.127 33.0874 165.204 32.9655 165.26 32.8105H166.305C166.283 33.0763 166.094 33.4307 165.927 33.6523C165.538 34.0842 164.971 34.2836 164.393 34.2836C163.77 34.2836 163.315 34.051 162.959 33.7187C162.503 33.2867 162.259 32.6443 162.259 31.9133C162.259 31.1822 162.481 30.5398 162.915 30.0967C163.248 29.7423 163.737 29.5208 164.371 29.5208C165.038 29.5208 165.649 29.7866 166.027 30.3626C166.36 30.861 166.438 31.3705 166.416 31.9354C166.416 31.9354 166.416 32.1348 166.416 32.2345ZM169.906 30.6506C169.762 30.4955 169.54 30.3958 169.217 30.3958C168.884 30.3958 168.617 30.5287 168.461 30.7503C168.306 30.9386 168.239 31.149 168.228 31.4481H170.195C170.184 31.1047 170.084 30.8499 169.906 30.6506ZM171.274 32.2456H168.239C168.228 32.5779 168.35 32.9212 168.572 33.1317C168.728 33.2757 168.939 33.4086 169.239 33.4086C169.562 33.4086 169.74 33.3421 169.895 33.1871C170.006 33.0874 170.084 32.9655 170.118 32.8105H171.174C171.14 33.0652 170.962 33.4307 170.785 33.6301C170.395 34.0842 169.829 34.2725 169.251 34.2725C168.639 34.2725 168.183 34.051 167.817 33.7187C167.372 33.2867 167.127 32.6554 167.127 31.9133C167.127 31.1822 167.339 30.5398 167.783 30.0967C168.128 29.7423 168.617 29.5208 169.228 29.5208C169.895 29.5208 170.518 29.7977 170.885 30.3626C171.218 30.861 171.296 31.3705 171.285 31.9354C171.285 31.9354 171.274 32.1348 171.274 32.2456Z" fill="white"/>
</g>
<defs>
<clipPath id="clip0_4_159">
<rect width="172" height="37" fill="white"/>
</clipPath>
</defs>
</svg>
