<svg width="60" height="46" viewBox="0 0 60 46" fill="none" xmlns="http://www.w3.org/2000/svg">
<path fill-rule="evenodd" clip-rule="evenodd" d="M5.27977 30.1732C4.76374 30.6757 4.08486 30.934 3.27065 30.934C2.4557 30.934 1.77682 30.6757 1.26079 30.1732C0.799034 29.7222 0.541016 29.1033 0.541016 28.3692V21.6545H2.46909V28.4596C2.46909 29.0517 2.83641 29.2839 3.27065 29.2839C3.7049 29.2839 4.07147 29.0517 4.07147 28.4596V21.6545H5.99955V28.3692C5.99955 29.1033 5.74227 29.7222 5.27977 30.1732Z" fill="white"/>
<path fill-rule="evenodd" clip-rule="evenodd" d="M10.9542 30.934L8.96256 26.3985V30.934H7.09082V21.6545H8.72571L10.6776 26.1901V21.6545H12.5493V30.934H10.9542Z" fill="white"/>
<mask id="mask0_4_95" style="mask-type:luminance" maskUnits="userSpaceOnUse" x="0" y="0" width="60" height="46">
<path fill-rule="evenodd" clip-rule="evenodd" d="M0.541016 45.6717H59.4931V0.911865H0.541016V45.6717Z" fill="white"/>
</mask>
<g mask="url(#mask0_4_95)">
<path fill-rule="evenodd" clip-rule="evenodd" d="M14.188 30.9341H15.8255V21.6547H14.188V30.9341Z" fill="white"/>
<path fill-rule="evenodd" clip-rule="evenodd" d="M22.3297 23.3228H21.5805V25.9038H22.3297C23.1467 25.9038 23.1743 25.2 23.1743 24.6133C23.1743 24.0266 23.1467 23.3228 22.3297 23.3228ZM22.3834 27.5717H21.5798V30.9341H19.6475V21.6547H22.3834C24.4805 21.6547 25.106 22.8009 25.106 24.6132C25.106 26.4247 24.4805 27.5717 22.3834 27.5717Z" fill="white"/>
<path fill-rule="evenodd" clip-rule="evenodd" d="M29.0076 23.6445C28.9032 23.4407 28.7202 23.2871 28.3805 23.2871C28.0416 23.2871 27.8586 23.4407 27.7542 23.6445C27.5318 24.0647 27.5061 25.1989 27.5061 26.2954C27.5061 27.3919 27.5318 28.5261 27.7542 28.947C27.8586 29.1508 28.0416 29.3036 28.3805 29.3036C28.7202 29.3036 28.9032 29.1508 29.0076 28.947C29.23 28.5261 29.2557 27.3919 29.2557 26.2954C29.2557 25.1989 29.23 24.0647 29.0076 23.6445ZM30.4158 30.0162C29.9982 30.5264 29.3847 30.934 28.3787 30.934C27.3733 30.934 26.7599 30.5264 26.3423 30.0162C25.6887 29.2387 25.6494 28.0409 25.6494 26.2946C25.6494 24.5483 25.6887 23.3506 26.3423 22.5731C26.7599 22.0629 27.3733 21.6545 28.3787 21.6545C29.3847 21.6545 29.9982 22.0629 30.4158 22.5731C31.0693 23.3506 31.1079 24.5483 31.1079 26.2946C31.1079 28.0409 31.0693 29.2387 30.4158 30.0162Z" fill="white"/>
<path fill-rule="evenodd" clip-rule="evenodd" d="M36.9385 30.1732C36.4224 30.6757 35.7436 30.934 34.9293 30.934C34.1144 30.934 33.4355 30.6757 32.9195 30.1732C32.4577 29.7222 32.1997 29.1033 32.1997 28.3692V21.6545H34.1278V28.4596C34.1278 29.0517 34.4951 29.2839 34.9293 29.2839C35.3636 29.2839 35.7302 29.0517 35.7302 28.4596V21.6545H37.6582V28.3692C37.6582 29.1033 37.4002 29.7222 36.9385 30.1732Z" fill="white"/>
<path fill-rule="evenodd" clip-rule="evenodd" d="M41.8975 23.3227H41.1248V25.656H41.8975C42.5927 25.656 42.6315 25.0171 42.6315 24.4825C42.6315 23.9487 42.5927 23.3227 41.8975 23.3227ZM42.8499 30.934L41.7302 27.3239H41.1246V30.934H39.2964V21.6545H41.91C43.906 21.6545 44.4588 22.7095 44.4588 24.4824C44.4588 25.4731 44.3044 26.3596 43.4167 26.9199L44.7549 30.934H42.8499Z" fill="white"/>
<path fill-rule="evenodd" clip-rule="evenodd" d="M48.0317 30.9341V21.6547H49.9224V29.2662H52.3986V30.9341H48.0317Z" fill="white"/>
<path fill-rule="evenodd" clip-rule="evenodd" d="M56.2163 24.3788L55.5039 27.8202H56.9287L56.2163 24.3788ZM57.5779 30.9341L57.2802 29.4875H55.1577L54.86 30.9341H52.9438L55.313 21.6547H57.1249L59.4941 30.9341H57.5779Z" fill="white"/>
<path fill-rule="evenodd" clip-rule="evenodd" d="M7.9114 18.9475C7.14461 19.6614 6.2499 20.0183 4.993 20.0183C3.35306 20.0183 2.35199 19.3462 1.66928 18.5062C0.604975 17.2265 0.541016 15.2526 0.541016 12.3764C0.541016 9.49954 0.604975 7.52638 1.66928 6.24588C2.35199 5.40662 3.35306 4.7345 4.993 4.7345C6.2499 4.7345 7.14461 5.09145 7.9114 5.80536C8.69975 6.5398 9.2107 7.71619 9.27466 9.1433H6.2499C6.22906 8.72331 6.18594 8.30332 6.01563 7.98887C5.84459 7.63191 5.54707 7.42156 4.993 7.42156C4.43964 7.42156 4.14141 7.6737 3.97109 8.0094C3.6089 8.70277 3.56578 10.5704 3.56578 12.3764C3.56578 14.1817 3.6089 16.0508 3.97109 16.7427C4.14141 17.0791 4.43964 17.3313 4.993 17.3313C5.54707 17.3313 5.84459 17.0997 6.01563 16.7427C6.18594 16.4283 6.22906 16.0083 6.2499 15.5883H9.27466C9.2107 17.0154 8.69975 18.213 7.9114 18.9475Z" fill="white"/>
<path fill-rule="evenodd" clip-rule="evenodd" d="M10.9136 20.0182H14.1887V4.73438H10.9136V20.0182Z" fill="white"/>
<path fill-rule="evenodd" clip-rule="evenodd" d="M22.5551 20.0182L19.369 12.5476V20.0182H16.3735V4.73438H18.9896L22.1118 12.205V4.73438H25.1072V20.0182H22.5551Z" fill="white"/>
<path fill-rule="evenodd" clip-rule="evenodd" d="M27.835 20.0182V4.73438H34.931V7.48192H30.9068V10.9377H34.3684V13.686H30.9068V17.2707H34.931V20.0182H27.835Z" fill="white"/>
<path fill-rule="evenodd" clip-rule="evenodd" d="M44.4528 20.0182V12.0544L42.7865 17.2917H41.2269L39.6032 12.0754V20.0182H36.5698V4.73438H39.24L42.0175 12.226L44.7951 4.73438H47.4869V20.0182H44.4528Z" fill="white"/>
<path fill-rule="evenodd" clip-rule="evenodd" d="M54.0326 9.2196L52.8462 14.887H55.219L54.0326 9.2196ZM56.2997 20.0183L55.8033 17.6358H52.2652L51.7688 20.0183H48.5757L52.5236 4.7345H55.5449L59.4927 20.0183H56.2997Z" fill="white"/>
<path fill-rule="evenodd" clip-rule="evenodd" d="M48.3028 36.3934C47.9857 36.3934 47.8143 36.5458 47.7161 36.7497C47.5088 37.1694 47.4844 38.3015 47.4844 39.3949C47.4844 40.4897 47.5088 41.6219 47.7161 42.0409C47.8143 42.2447 47.9857 42.3978 48.3028 42.3978C48.6206 42.3978 48.792 42.2447 48.8895 42.0409C49.0975 41.6219 49.1219 40.4897 49.1219 39.3949C49.1219 38.3015 49.0975 37.1694 48.8895 36.7497C48.792 36.5458 48.6206 36.3934 48.3028 36.3934Z" fill="white"/>
<path fill-rule="evenodd" clip-rule="evenodd" d="M16.3735 40.76H18.0111L17.1927 37.4849L16.3735 40.76Z" fill="white"/>
<path fill-rule="evenodd" clip-rule="evenodd" d="M10.663 36.3934H9.82324V38.5768H10.663C11.4189 38.5768 11.4608 37.9784 11.4608 37.4787C11.4608 36.9797 11.4189 36.3934 10.663 36.3934Z" fill="white"/>
<path fill-rule="evenodd" clip-rule="evenodd" d="M57.6376 43.9773H56.0689L54.1112 39.5571V43.9773H52.2708V34.9327H53.8776L55.7964 39.3536V34.9327H57.6376V43.9773ZM50.4332 43.1636C50.0183 43.6722 49.4087 44.0786 48.4101 44.0786C47.4122 44.0786 46.8025 43.6722 46.3877 43.1636C45.7392 42.3888 45.7011 41.1948 45.7011 39.4542C45.7011 37.7143 45.7392 36.5204 46.3877 35.7448C46.8025 35.237 47.4122 34.8305 48.4101 34.8305C49.4087 34.8305 50.0183 35.237 50.4332 35.7448C51.0809 36.5204 51.1205 37.7143 51.1205 39.4542C51.1205 41.1948 51.0809 42.3888 50.4332 43.1636ZM42.7062 43.9771H44.5474V34.9326H42.7062V43.9771ZM41.7374 36.5582H40.1809V43.977H38.3404V36.5582H36.7846V34.9325H41.7374V36.5582ZM33.9673 43.9771H35.8085V34.9326H33.9673V43.9771ZM32.2219 43.4043C31.807 43.7988 31.1068 44.0784 30.2124 44.0784C29.3051 44.0784 28.6315 43.8241 28.2167 43.4177C27.7623 42.9725 27.607 42.3379 27.607 41.4109H29.4475C29.4475 41.7786 29.4734 42.0462 29.6423 42.2357C29.7459 42.3505 29.927 42.4527 30.2124 42.4527C30.4979 42.4527 30.6798 42.3759 30.7962 42.2237C30.9256 42.0709 30.9774 41.8293 30.9774 41.4609C30.9774 40.598 30.835 40.4451 30.1736 40.1782L29.0068 39.7083C28.0736 39.3272 27.6847 38.8447 27.6847 37.4345C27.6847 36.5963 27.9571 35.8975 28.5143 35.4277C28.955 35.0592 29.5122 34.8564 30.2124 34.8564C31.0299 34.8564 31.6259 35.0592 32.0278 35.4277C32.5332 35.8848 32.7402 36.6089 32.7402 37.524H30.8997C30.8997 37.2063 30.8997 36.9139 30.7445 36.7111C30.6402 36.5709 30.4849 36.4821 30.2124 36.4821C29.9529 36.4821 29.7854 36.5836 29.6811 36.723C29.564 36.8752 29.5259 37.0661 29.5259 37.3704C29.5259 37.9424 29.6287 38.1079 30.1607 38.3235L31.3146 38.7813C32.4807 39.2512 32.8186 39.759 32.8186 41.3975C32.8186 42.3125 32.7021 42.9479 32.2219 43.4043ZM26.482 43.9774H24.9133L22.9557 39.5573V43.9774H21.1145V34.9328H22.722L24.6408 39.3537V34.9328H26.482V43.9774ZM18.4092 43.9773L18.1109 42.567H15.985L15.6866 43.9773H13.7685L16.141 34.9327H17.9556L20.3281 43.9773H18.4092ZM11.4444 43.9771L10.3164 40.4586H9.70675V43.9771H7.86627V34.9326H10.4983C12.5077 34.9326 13.0656 35.9617 13.0656 37.6889C13.0656 38.6554 12.9089 39.5183 12.0145 40.0649L13.3633 43.9771H11.4444ZM6.89917 36.5585H5.34339V43.9773H3.5022V36.5585H1.94713V34.9327H6.89917V36.5585ZM0.541016 45.6729H59.4931V33.1183H0.541016V45.6729Z" fill="white"/>
<path fill-rule="evenodd" clip-rule="evenodd" d="M27.835 3.09552H34.931V0.912109H27.835V3.09552Z" fill="white"/>
</g>
</svg>
