<svg width="335" height="77" viewBox="0 0 335 77" fill="none" xmlns="http://www.w3.org/2000/svg">
<g clip-path="url(#clip0_1_5521)">
<path d="M5.5293 48.7941C5.5293 65.8823 16.4493 77 33.1932 77C40.6812 77 49.1051 74.7353 53.4731 71.3382L51.2891 55.3823C48.7931 57.8529 43.4891 60.0147 38.9132 60.0147C32.0492 60.0147 27.8892 55.2794 27.8892 48.2794C27.8892 47.7132 27.9239 47.1814 27.9759 46.6495L5.54663 48.2279C5.54663 48.4167 5.5293 48.5882 5.5293 48.777V48.7941Z" fill="#1D1D1B"/>
<path d="M96.5289 48.2794C96.5289 55.2794 93.8249 60.0147 88.2089 60.0147C83.321 60.0147 79.993 56.3088 79.993 48.2794C79.993 46.2892 80.2183 44.4878 80.6343 42.9436L58.3091 44.5221C58.0837 46.1005 57.9451 47.7304 57.9451 49.4118C57.9451 65.9853 69.801 77 87.6889 77C105.577 77 118.577 65.0588 118.577 47.25C118.577 44.8137 118.299 42.4976 117.797 40.3186L95.5062 41.8971C96.1649 43.5956 96.5289 45.723 96.5289 48.2794Z" fill="white"/>
<path d="M161.945 55.5882C159.553 58.4706 156.433 60.0147 153.001 60.0147C147.385 60.0147 147.281 55.1765 147.281 52.8088V38.2426L125.753 39.7696V55.6054C125.753 69.0907 130.537 77.0171 142.497 77.0171C150.609 77.0171 157.577 73.4142 162.881 67.4436L164.025 75.3701H184.305C183.577 66.5171 183.161 54.1642 183.161 41.2966C183.161 39.4436 183.161 37.5735 183.195 35.7206L161.65 37.2475C161.65 45.0539 161.667 50.75 161.962 55.6225L161.945 55.5882Z" fill="#1D1D1B"/>
<path d="M194.601 55.3823C194.601 62.0735 194.497 68.8676 194.289 75.3529H216.232C216.128 69.7941 216.128 65.0588 216.128 60.8382C216.128 52.2941 216.128 46.2206 215.816 41.0735C218.208 38.1912 221.328 36.6471 224.76 36.6471C230.376 36.6471 230.48 41.4853 230.48 43.8529V59.0882C230.48 65.9853 230.48 69.3823 230.272 75.3529H252.424C252.008 68.6618 252.008 66.0882 252.008 59.0882V39.8382C252.008 37.5907 251.748 34.2623 250.656 30.9338L194.219 34.9142C194.462 41.2451 194.583 48.2108 194.583 55.3823H194.601Z" fill="white"/>
<path d="M293.088 60.0147C285.912 60.0147 285.808 55.6912 285.808 51.8824V39.1176H301.616L302.171 27.2966L257.52 30.4534V39.1176H264.384V50.6471C264.384 62.3824 264.488 77 287.056 77C293.4 77 299.432 75.8676 304.112 73.3971L302.24 57.6471C300.056 58.9853 296.624 60.0147 293.088 60.0147Z" fill="#1D1D1B"/>
<path d="M322.936 54.4559C315.656 54.4559 310.768 59.0882 310.768 65.6765C310.768 72.2647 315.656 77 322.936 77C330.216 77 335 72.3676 335 65.6765C335 58.9853 330.112 54.4559 322.936 54.4559Z" fill="white"/>
<path d="M329.488 48.0735C329.488 42.2402 332.851 32.4951 334.064 25.049L312.64 26.5588C313.264 33.7475 315.136 42.7377 315.136 48.0735H329.488Z" fill="white"/>
<path d="M33.2625 33.3529C37.2145 33.3529 41.8945 34.8971 44.9105 37.4706L48.2385 22.1324C43.7665 18.7353 35.6545 16.3676 27.8546 16.3676C11.18 16.3676 0.242666 28.1544 0 44.951L22.4292 43.3725C23.0186 37.299 26.9532 33.3701 33.2625 33.3701V33.3529Z" fill="#1D1D1B"/>
<path d="M83.5983 16.3677C66.6637 16.3677 54.8598 26.1642 52.7625 41.2279L75.0877 39.6495C76.1624 35.7378 78.589 33.3529 82.4543 33.3529C85.9037 33.3529 88.573 35.0515 89.9596 38.5858L112.25 37.0074C109.408 24.3799 98.6609 16.3505 83.5983 16.3505V16.3677Z" fill="white"/>
<path d="M141.734 34.2794C141.734 27.3824 141.734 23.9853 141.942 18.0147H119.79C120.206 24.7059 120.206 27.2794 120.206 34.2794V36.4583L141.734 34.9314V34.2623V34.2794Z" fill="#1D1D1B"/>
<path d="M155.965 18.0147C156.069 23.5735 156.069 28.3088 156.069 32.5294V33.9191L177.614 32.3922C177.649 27.5368 177.753 22.6814 177.909 17.9975H155.965V18.0147Z" fill="#1D1D1B"/>
<path d="M229.388 16.3676C221.484 16.3676 214.62 19.9706 209.316 25.9412C209.004 23.4706 208.588 20.8971 208.172 18.0147H187.893C188.222 21.9436 188.465 26.576 188.673 31.6201L245.11 27.6397C243.255 21.9779 238.974 16.3676 229.406 16.3676H229.388Z" fill="white"/>
<path d="M296.78 20.3824H280.244C280.244 14.6176 280.244 6.17647 280.452 2.05882H262.876C261.94 8.75 260.9 15.1324 260.068 20.3824H251.956V27.1593L296.607 24.0025L296.78 20.3824Z" fill="#1D1D1B"/>
<path d="M328.916 17.2941C328.916 8.85294 329.54 4.52941 329.54 0H306.14C306.14 4.52941 306.868 10.2941 306.868 19.25C306.868 20.4853 306.937 21.8407 307.076 23.2647L328.5 21.7549C328.76 20.1422 328.916 18.6324 328.916 17.2941Z" fill="white"/>
</g>
<defs>
<clipPath id="clip0_1_5521">
<rect width="335" height="77" fill="white"/>
</clipPath>
</defs>
</svg>
