<svg xmlns="http://www.w3.org/2000/svg" width="159" height="35" viewBox="0 0 159 35" fill="none">
  <path d="M2.86243 21.7253C2.86243 29.3337 8.02553 34.2837 15.9423 34.2837C19.4827 34.2837 23.4657 33.2754 25.5309 31.7629L24.4983 24.6586C23.3181 25.7586 20.8104 26.7211 18.6468 26.7211C15.4014 26.7211 13.4345 24.6128 13.4345 21.4961C13.4345 21.244 13.4509 21.0072 13.4755 20.7704L2.87062 21.4732C2.87062 21.5572 2.86243 21.6336 2.86243 21.7176V21.7253Z" fill="#1D1D1B"/>
  <path d="M41.7076 34.6655C33.0532 34.6655 27.2345 29.578 27.2345 22.0001C27.2345 21.305 27.2837 20.648 27.3984 19.8459L28.2261 19.7924C28.1114 20.564 28.054 21.3432 28.054 22.0001C28.054 29.1196 33.5368 33.9016 41.7076 33.9016C49.8784 33.9016 55.902 28.7301 55.902 21.0376C55.902 20.0369 55.7709 18.9674 55.5332 17.9744L56.361 17.9209C56.6068 18.9674 56.7215 19.9758 56.7215 21.0376C56.7215 29.1884 50.6897 34.6655 41.7076 34.6655Z" fill="white"/>
  <path d="M41.9545 27.1031C39.2255 27.1031 37.6602 25.0635 37.6602 21.4961C37.6602 20.5794 37.7339 19.869 37.947 19.1433L38.7829 19.0898C38.5862 19.7544 38.4797 20.6482 38.4797 21.4961C38.4797 24.6204 39.7172 26.3392 41.9545 26.3392C45.0196 26.3392 45.4786 23.3065 45.4786 21.4961C45.4786 20.4343 45.2737 19.4107 44.9705 18.6773L45.8146 18.6162C46.1588 19.4412 46.2981 20.335 46.2981 21.4885C46.2981 25.0559 44.7164 27.0955 41.9545 27.0955V27.1031Z" fill="white"/>
  <path d="M76.8167 24.7504C75.6857 26.0337 74.2106 26.7212 72.5879 26.7212C69.9326 26.7212 69.8834 24.567 69.8834 23.5128V17.0273L59.7047 17.7072V24.758C59.7047 30.7622 61.9666 34.2914 67.6215 34.2914C71.4569 34.2914 74.7515 32.6873 77.2593 30.0289L77.8002 33.5581H87.3888C87.0446 29.6164 86.8479 24.1163 86.8479 18.3871C86.8479 17.5621 86.8479 16.7294 86.8643 15.9044L76.6774 16.5843C76.6774 20.06 76.6856 22.5962 76.8249 24.7656L76.8167 24.7504Z" fill="#1D1D1B"/>
  <path d="M120.031 33.9323H108.697L108.713 33.5351C108.812 30.8843 108.812 29.3565 108.812 26.3086V19.5252C108.812 18.0585 108.533 16.6988 106.517 16.6988C105.058 16.6988 103.747 17.2946 102.706 18.4175C102.846 20.6863 102.846 23.3829 102.846 27.0878C102.846 28.9517 102.846 31.0677 102.895 33.5427V33.9323H91.6834L91.6998 33.5351C91.7981 30.6705 91.8473 27.6836 91.8473 24.6586C91.8473 21.6335 91.7899 18.4252 91.6752 15.5758L92.4947 15.5224C92.6094 18.3793 92.675 21.5495 92.675 24.6586C92.675 27.5538 92.634 30.4184 92.5439 33.1684H102.075C102.034 30.8538 102.034 28.86 102.034 27.0878C102.034 23.3141 102.034 20.5946 101.887 18.3106V18.1578L101.977 18.0432C103.19 16.6606 104.763 15.9349 106.525 15.9349C109.639 15.9349 109.639 18.6391 109.639 19.5252V26.3086C109.639 29.2114 109.639 30.7392 109.558 33.1684H119.171C118.999 30.4718 118.999 29.2725 118.999 26.3086V17.7377C118.999 16.9661 118.892 15.3467 118.351 13.8036L119.179 13.7501C119.753 15.3925 119.818 16.9279 119.818 17.7453V26.3162C119.818 29.41 119.818 30.5635 120.015 33.5351L120.039 33.9399L120.031 33.9323Z" fill="white"/>
  <path d="M138.824 26.7211C135.431 26.7211 135.382 24.7961 135.382 23.1002V17.4168H142.856L143.119 12.1536L122.007 13.5591V17.4168H125.253V22.5502C125.253 27.7753 125.302 34.2837 135.972 34.2837C138.972 34.2837 141.824 33.7795 144.036 32.6795L143.151 25.6669C142.119 26.2628 140.496 26.7211 138.824 26.7211Z" fill="#1D1D1B"/>
  <path d="M152.936 24.2461C149.494 24.2461 147.183 26.3086 147.183 29.242C147.183 32.1754 149.494 34.2837 152.936 34.2837C156.378 34.2837 158.64 32.2212 158.64 29.242C158.64 26.2628 156.329 24.2461 152.936 24.2461Z" fill="white"/>
  <path d="M156.034 21.4043C156.034 18.8071 157.624 14.4682 158.198 11.1528L148.068 11.8251C148.363 15.0258 149.248 19.0286 149.248 21.4043H156.034Z" fill="white"/>
  <path d="M15.9745 14.8502C17.8431 14.8502 20.0558 15.5377 21.4818 16.6835L23.0554 9.85428C20.9409 8.34177 17.1055 7.28759 13.4176 7.28759C5.53359 7.28759 0.362294 12.5356 0.247559 20.0141L10.8524 19.3113C11.1311 16.6071 12.9914 14.8578 15.9745 14.8578V14.8502Z" fill="#1D1D1B"/>
  <path d="M36.1513 17.6307L35.34 17.6841C35.9218 15.698 37.3069 14.4681 39.2246 14.4681C41.1423 14.4681 42.5027 15.4994 43.1912 17.1571L42.3634 17.2105C41.7897 15.8279 40.7571 15.232 39.2246 15.232C37.692 15.232 36.6266 15.9577 36.1431 17.6307H36.1513Z" fill="white"/>
  <path d="M25.5963 18.326L24.7849 18.3795C25.8093 11.4586 31.6936 6.90576 39.7743 6.90576C46.9781 6.90576 52.3297 10.603 53.7311 16.4621L52.9115 16.5156C51.6003 11.0308 46.5765 7.66966 39.7743 7.66966C32.0133 7.66966 26.5797 11.703 25.6045 18.326H25.5963Z" fill="white"/>
  <path d="M67.2614 15.2627C67.2614 12.1918 67.2614 10.6793 67.3597 8.0209H56.886C57.0827 11.0001 57.0827 12.1459 57.0827 15.2627V16.2328L67.2614 15.5529V15.255V15.2627Z" fill="#1D1D1B"/>
  <path d="M73.9897 8.02088C74.0389 10.4959 74.0389 12.6043 74.0389 14.4835V15.1022L84.2258 14.4223C84.2422 12.2605 84.2914 10.0987 84.3651 8.01324H73.9897V8.02088Z" fill="#1D1D1B"/>
  <path d="M89.0444 14.1093C88.9542 11.7947 88.8313 9.74746 88.6838 8.05161L88.651 7.6391H99.0346L99.2804 9.23565C99.3624 9.73982 99.4361 10.2211 99.5099 10.6947C102.116 8.21203 105.279 6.90576 108.705 6.90576C113.647 6.90576 115.704 9.86968 116.54 12.2836L115.704 12.3371C114.606 9.18218 112.27 7.66966 108.697 7.66966C105.124 7.66966 102.067 9.09815 99.5099 11.8023L98.9116 12.4364L98.7969 11.5961C98.6986 10.878 98.5838 10.137 98.4609 9.35023L98.3134 8.403H89.5197C89.6508 10.0225 89.7656 11.9169 89.8475 14.0558L89.028 14.1093H89.0444Z" fill="white"/>
  <path d="M140.569 9.07517H132.75C132.75 6.50848 132.75 2.7501 132.849 0.916748H124.539C124.096 3.89595 123.604 6.73765 123.211 9.07517H119.375V12.0926L140.487 10.687L140.569 9.07517Z" fill="#1D1D1B"/>
  <path d="M155.764 7.70009C155.764 3.94171 156.059 2.01669 156.059 0H144.995C144.995 2.01669 145.339 4.58339 145.339 8.57093C145.339 9.12094 145.372 9.72442 145.437 10.3585L155.567 9.68622C155.69 8.96816 155.764 8.29593 155.764 7.70009Z" fill="white"/>
  <rect width="10.737" height="0.578531" transform="matrix(0.997851 -0.065528 0.0760216 0.997106 25.296 17.7642)" fill="white"/>
  <rect width="10.737" height="0.578531" transform="matrix(0.997851 -0.065528 0.0760216 0.997106 27.6711 19.8296)" fill="white"/>
  <rect width="10.737" height="0.578531" transform="matrix(0.997851 -0.065528 0.0760216 0.997106 45.4014 18.6492)" fill="white"/>
  <path d="M91.7372 15.5777L118.912 13.7648L118.956 14.3416L92.0176 16.1106L91.7372 15.5777Z" fill="white"/>
  <path d="M89.3465 13.526L116.007 11.7468L116.051 12.3236L89.6224 14.0592L89.3465 13.526Z" fill="white"/>
  <rect width="10.737" height="0.578531" transform="matrix(0.997851 -0.065528 0.0760216 0.997106 42.5647 16.6176)" fill="white"/>
</svg>